<svg xmlns="http://www.w3.org/2000/svg" width="325" height="363" viewBox="0 0 325 363">
<path d="M 269.00,324.50 L 267.00,324.50 L 265.00,324.50 L 263.00,324.50 L 261.00,324.50 L 259.00,324.50 L 257.00,324.50 L 255.00,324.50 L 253.00,324.50 L 251.00,324.50 L 249.00,324.50 L 247.00,324.50 L 245.00,324.50 L 243.00,324.50 L 241.00,324.50 L 239.00,324.50 L 237.00,324.50 L 236.00,323.50 L 234.00,323.50 L 233.00,322.50 L 232.00,321.50 L 231.50,320.00 L 230.50,319.00 L 229.50,318.00 L 229.00,316.50 L 228.50,315.00 L 227.50,314.00 L 227.00,312.50 L 226.50,311.00 L 225.50,310.00 L 225.00,308.50 L 224.00,307.50 L 223.50,306.00 L 222.50,305.00 L 222.00,303.50 L 221.50,302.00 L 220.50,301.00 L 220.00,299.50 L 219.50,298.00 L 218.50,297.00 L 218.00,295.50 L 217.50,294.00 L 216.50,293.00 L 215.50,292.00 L 215.00,290.50 L 214.50,289.00 L 213.50,288.00 L 213.00,286.50 L 212.50,285.00 L 211.50,284.00 L 211.00,282.50 L 210.50,281.00 L 209.50,280.00 L 209.00,278.50 L 208.00,277.50 L 207.50,276.00 L 206.50,275.00 L 206.00,273.50 L 205.50,272.00 L 204.50,271.00 L 204.00,269.50 L 203.50,268.00 L 202.50,267.00 L 202.00,265.50 L 201.50,264.00 L 200.50,263.00 L 200.00,261.50 L 199.00,260.50 L 198.50,259.00 L 197.50,258.00 L 197.00,256.50 L 196.50,255.00 L 195.50,254.00 L 195.00,252.50 L 194.50,251.00 L 193.50,250.00 L 193.00,248.50 L 192.50,247.00 L 191.50,246.00 L 190.50,245.00 L 190.00,243.50 L 189.50,242.00 L 188.50,241.00 L 188.00,239.50 L 187.50,238.00 L 186.50,237.00 L 186.00,235.50 L 185.00,234.50 L 184.50,233.00 L 183.50,232.00 L 183.00,230.50 L 182.50,229.00 L 181.50,228.00 L 181.00,226.50 L 180.50,225.00 L 179.50,224.00 L 179.00,222.50 L 178.50,221.00 L 177.50,220.00 L 176.50,219.00 L 176.00,217.50 L 175.50,216.00 L 174.50,215.00 L 174.00,213.50 L 173.50,212.00 L 172.50,211.00 L 172.00,209.50 L 171.50,208.00 L 170.50,207.00 L 170.00,205.50 L 169.50,204.00 L 168.50,203.00 L 167.50,202.00 L 167.00,200.50 L 166.50,199.00 L 165.50,198.00 L 165.00,196.50 L 164.00,195.50 L 163.00,194.50 L 161.00,194.50 L 160.00,193.50 L 158.00,193.50 L 157.00,194.50 L 156.50,196.00 L 156.50,198.00 L 156.50,200.00 L 156.00,201.50 L 155.50,203.00 L 154.50,204.00 L 153.00,204.50 L 152.00,205.50 L 150.00,205.50 L 148.00,205.50 L 146.00,205.50 L 144.50,205.00 L 143.00,204.50 L 142.50,203.00 L 142.50,201.00 L 141.50,200.00 L 141.50,198.00 L 141.50,196.00 L 141.00,194.50 L 139.50,194.00 L 138.00,194.50 L 136.00,194.50 L 134.50,195.00 L 133.50,196.00 L 133.00,197.50 L 132.50,199.00 L 131.50,200.00 L 131.00,201.50 L 130.50,203.00 L 129.50,204.00 L 128.50,205.00 L 128.00,206.50 L 127.50,208.00 L 126.50,209.00 L 126.00,210.50 L 125.50,212.00 L 124.50,213.00 L 124.00,214.50 L 123.50,216.00 L 122.50,217.00 L 122.00,218.50 L 121.50,220.00 L 120.50,221.00 L 120.00,222.50 L 119.00,223.50 L 118.50,225.00 L 117.50,226.00 L 117.00,227.50 L 116.50,229.00 L 115.50,230.00 L 115.00,231.50 L 114.50,233.00 L 113.50,234.00 L 113.00,235.50 L 112.50,237.00 L 111.50,238.00 L 111.00,239.50 L 110.00,240.50 L 109.50,242.00 L 108.50,243.00 L 108.00,244.50 L 107.50,246.00 L 106.50,247.00 L 106.00,248.50 L 105.50,250.00 L 104.50,251.00 L 104.00,252.50 L 103.50,254.00 L 102.50,255.00 L 102.00,256.50 L 101.50,258.00 L 100.50,259.00 L 99.50,260.00 L 99.00,261.50 L 98.50,263.00 L 97.50,264.00 L 97.00,265.50 L 96.50,267.00 L 95.50,268.00 L 95.00,269.50 L 94.50,271.00 L 93.50,272.00 L 93.00,273.50 L 92.50,275.00 L 91.50,276.00 L 91.00,277.50 L 90.00,278.50 L 89.50,280.00 L 88.50,281.00 L 88.00,282.50 L 87.50,284.00 L 86.50,285.00 L 86.00,286.50 L 85.50,288.00 L 84.50,289.00 L 84.00,290.50 L 83.50,292.00 L 82.50,293.00 L 81.50,294.00 L 81.00,295.50 L 80.50,297.00 L 79.50,298.00 L 79.00,299.50 L 78.50,301.00 L 77.50,302.00 L 77.00,303.50 L 76.50,305.00 L 75.50,306.00 L 74.50,307.00 L 74.00,308.50 L 73.50,310.00 L 72.50,311.00 L 72.00,312.50 L 71.50,314.00 L 70.50,315.00 L 69.50,316.00 L 69.00,317.50 L 68.50,319.00 L 67.50,320.00 L 66.50,321.00 L 65.50,322.00 L 64.50,323.00 L 63.00,323.50 L 62.00,324.50 L 60.00,324.50 L 58.00,324.50 L 56.00,324.50 L 54.00,324.50 L 52.00,324.50 L 50.00,324.50 L 48.00,324.50 L 46.00,324.50 L 44.00,324.50 L 42.00,324.50 L 40.00,324.50 L 38.00,324.50 L 36.00,324.50 L 34.00,324.50 L 32.00,324.50 L 30.00,324.50 L 28.00,324.50 L 27.00,323.50 L 25.00,323.50 L 24.00,322.50 L 22.50,322.00 L 21.00,321.50 L 20.00,320.50 L 19.00,319.50 L 18.00,318.50 L 17.00,317.50 L 16.00,316.50 L 15.00,315.50 L 14.00,314.50 L 13.50,313.00 L 12.50,312.00 L 11.50,311.00 L 11.00,309.50 L 10.50,308.00 L 10.00,306.50 L 9.50,305.00 L 9.50,303.00 L 9.50,301.00 L 9.50,299.00 L 9.50,297.00 L 9.50,295.00 L 9.50,293.00 L 9.50,291.00 L 9.50,289.00 L 9.50,287.00 L 9.50,285.00 L 9.50,283.00 L 9.50,281.00 L 9.50,279.00 L 9.50,277.00 L 9.50,275.00 L 9.50,273.00 L 9.50,271.00 L 9.50,269.00 L 9.50,267.00 L 9.50,265.00 L 9.50,263.00 L 9.50,261.00 L 9.50,259.00 L 9.50,257.00 L 9.50,255.00 L 9.50,253.00 L 9.50,251.00 L 9.50,249.00 L 9.50,247.00 L 9.50,245.00 L 9.50,243.00 L 9.50,241.00 L 9.50,239.00 L 9.50,237.00 L 9.50,235.00 L 9.50,233.00 L 9.50,231.00 L 9.50,229.00 L 9.50,227.00 L 9.50,225.00 L 9.50,223.00 L 9.50,221.00 L 9.50,219.00 L 9.50,217.00 L 9.50,215.00 L 9.50,213.00 L 9.50,211.00 L 9.50,209.00 L 9.50,207.00 L 9.50,205.00 L 9.50,203.00 L 9.50,201.00 L 9.50,199.00 L 9.50,197.00 L 9.50,195.00 L 9.50,193.00 L 9.50,191.00 L 9.50,189.00 L 9.50,187.00 L 9.50,185.00 L 9.50,183.00 L 9.50,181.00 L 9.50,179.00 L 9.50,177.00 L 9.50,175.00 L 9.50,173.00 L 9.50,171.00 L 9.50,169.00 L 9.50,167.00 L 9.50,165.00 L 9.50,163.00 L 9.50,161.00 L 9.50,159.00 L 9.50,157.00 L 9.50,155.00 L 9.50,153.00 L 9.50,151.00 L 9.50,149.00 L 9.50,147.00 L 9.50,145.00 L 9.50,143.00 L 9.50,141.00 L 9.50,139.00 L 9.50,137.00 L 9.50,135.00 L 9.50,133.00 L 9.50,131.00 L 9.50,129.00 L 9.50,127.00 L 9.50,125.00 L 9.50,123.00 L 9.50,121.00 L 9.50,119.00 L 9.50,117.00 L 9.50,115.00 L 9.50,113.00 L 9.50,111.00 L 9.50,109.00 L 9.50,107.00 L 9.50,105.00 L 9.50,103.00 L 9.50,101.00 L 9.50,99.00 L 9.50,97.00 L 9.50,95.00 L 9.50,93.00 L 9.50,91.00 L 9.50,89.00 L 9.50,87.00 L 9.50,85.00 L 9.50,83.00 L 9.50,81.00 L 9.50,79.00 L 9.50,77.00 L 9.50,75.00 L 9.50,73.00 L 9.50,71.00 L 9.50,69.00 L 10.00,67.50 L 10.50,66.00 L 11.00,64.50 L 11.50,63.00 L 12.50,62.00 L 13.00,60.50 L 14.00,59.50 L 15.00,58.50 L 15.50,57.00 L 16.50,56.00 L 17.50,55.00 L 19.00,54.50 L 20.00,53.50 L 21.00,52.50 L 22.00,51.50 L 23.50,51.00 L 25.00,50.50 L 26.00,49.50 L 28.00,49.50 L 29.50,49.00 L 31.00,48.50 L 33.00,48.50 L 35.00,48.50 L 37.00,48.50 L 39.00,48.50 L 41.00,48.50 L 43.00,48.50 L 45.00,48.50 L 47.00,48.50 L 49.00,48.50 L 51.00,48.50 L 53.00,48.50 L 55.00,48.50 L 57.00,48.50 L 59.00,48.50 L 61.00,48.50 L 63.00,48.50 L 65.00,48.50 L 67.00,48.50 L 69.00,48.50 L 71.00,48.50 L 73.00,48.50 L 75.00,48.50 L 77.00,48.50 L 79.00,48.50 L 81.00,48.50 L 83.00,48.50 L 85.00,48.50 L 87.00,48.50 L 89.00,48.50 L 91.00,48.50 L 93.00,48.50 L 95.00,48.50 L 97.00,48.50 L 99.00,48.50 L 101.00,48.50 L 103.00,48.50 L 105.00,48.50 L 107.00,48.50 L 109.00,48.50 L 111.00,48.50 L 113.00,48.50 L 115.00,48.50 L 117.00,48.50 L 119.00,48.50 L 121.00,48.50 L 123.00,48.50 L 125.00,48.50 L 127.00,48.50 L 129.00,48.50 L 131.00,48.50 L 133.00,48.50 L 135.00,48.50 L 137.00,48.50 L 139.00,48.50 L 141.00,48.50 L 143.00,48.50 L 145.00,48.50 L 147.00,48.50 L 149.00,48.50 L 151.00,48.50 L 153.00,48.50 L 155.00,48.50 L 157.00,48.50 L 159.00,48.50 L 161.00,48.50 L 163.00,48.50 L 165.00,48.50 L 167.00,48.50 L 169.00,48.50 L 171.00,48.50 L 173.00,48.50 L 175.00,48.50 L 177.00,48.50 L 179.00,48.50 L 181.00,48.50 L 183.00,48.50 L 185.00,48.50 L 187.00,48.50 L 189.00,48.50 L 191.00,48.50 L 193.00,48.50 L 195.00,48.50 L 197.00,48.50 L 199.00,48.50 L 201.00,48.50 L 203.00,48.50 L 205.00,48.50 L 207.00,48.50 L 209.00,48.50 L 211.00,48.50 L 213.00,48.50 L 215.00,48.50 L 217.00,48.50 L 219.00,48.50 L 221.00,48.50 L 223.00,48.50 L 225.00,48.50 L 227.00,48.50 L 229.00,48.50 L 231.00,48.50 L 233.00,48.50 L 235.00,48.50 L 237.00,48.50 L 239.00,48.50 L 241.00,48.50 L 243.00,48.50 L 245.00,48.50 L 247.00,48.50 L 249.00,48.50 L 251.00,48.50 L 253.00,48.50 L 255.00,48.50 L 257.00,48.50 L 259.00,48.50 L 261.00,48.50 L 263.00,48.50 L 265.00,48.50 L 267.00,48.50 L 268.50,49.00 L 270.00,49.50 L 271.50,50.00 L 273.00,50.50 L 274.00,51.50 L 275.50,52.00 L 277.00,52.50 L 278.00,53.50 L 279.00,54.50 L 280.50,55.00 L 281.50,56.00 L 282.50,57.00 L 283.50,58.00 L 284.00,59.50 L 285.00,60.50 L 285.50,62.00 L 286.50,63.00 L 287.00,64.50 L 287.50,66.00 L 288.00,67.50 L 288.50,69.00 L 289.00,70.50 L 289.50,72.00 L 289.50,74.00 L 289.50,76.00 L 289.50,78.00 L 289.50,80.00 L 289.50,82.00 L 289.50,84.00 L 289.50,86.00 L 289.50,88.00 L 289.50,90.00 L 289.50,92.00 L 289.50,94.00 L 289.50,96.00 L 289.50,98.00 L 289.50,100.00 L 289.50,102.00 L 289.50,104.00 L 289.50,106.00 L 289.50,108.00 L 289.50,110.00 L 289.50,112.00 L 289.50,114.00 L 289.50,116.00 L 289.50,118.00 L 289.50,120.00 L 289.50,122.00 L 289.50,124.00 L 289.50,126.00 L 289.50,128.00 L 289.50,130.00 L 289.50,132.00 L 289.50,134.00 L 289.50,136.00 L 289.50,138.00 L 289.50,140.00 L 289.50,142.00 L 289.50,144.00 L 289.50,146.00 L 289.50,148.00 L 289.50,150.00 L 289.50,152.00 L 289.50,154.00 L 289.50,156.00 L 289.50,158.00 L 289.50,160.00 L 289.50,162.00 L 289.50,164.00 L 289.50,166.00 L 289.50,168.00 L 289.50,170.00 L 289.50,172.00 L 289.50,174.00 L 289.50,176.00 L 289.50,178.00 L 289.50,180.00 L 289.50,182.00 L 289.50,184.00 L 289.50,186.00 L 289.50,188.00 L 289.50,190.00 L 289.50,192.00 L 289.50,194.00 L 289.50,196.00 L 289.50,198.00 L 289.50,200.00 L 289.50,202.00 L 289.50,204.00 L 289.50,206.00 L 289.50,208.00 L 289.50,210.00 L 289.50,212.00 L 289.50,214.00 L 289.50,216.00 L 289.50,218.00 L 289.50,220.00 L 289.50,222.00 L 289.50,224.00 L 289.50,226.00 L 289.50,228.00 L 289.50,230.00 L 289.50,232.00 L 289.50,234.00 L 289.50,236.00 L 289.50,238.00 L 289.50,240.00 L 289.50,242.00 L 289.50,244.00 L 289.50,246.00 L 289.50,248.00 L 289.50,250.00 L 289.50,252.00 L 289.50,254.00 L 289.50,256.00 L 289.50,258.00 L 289.50,260.00 L 289.50,262.00 L 289.50,264.00 L 289.50,266.00 L 289.50,268.00 L 289.50,270.00 L 289.50,272.00 L 289.50,274.00 L 289.50,276.00 L 289.50,278.00 L 289.50,280.00 L 289.50,282.00 L 289.50,284.00 L 289.50,286.00 L 289.50,288.00 L 289.50,290.00 L 289.50,292.00 L 289.50,294.00 L 289.50,296.00 L 289.50,298.00 L 289.50,300.00 L 289.50,302.00 L 288.50,303.00 L 288.50,305.00 L 288.00,306.50 L 287.50,308.00 L 287.00,309.50 L 286.50,311.00 L 285.50,312.00 L 285.00,313.50 L 284.00,314.50 L 283.00,315.50 L 282.00,316.50 L 281.00,317.50 L 280.00,318.50 L 279.00,319.50 L 278.00,320.50 L 276.50,321.00 L 275.00,321.50 L 274.00,322.50 L 272.50,323.00 L 271.00,323.50 L 269.50,324.00 Z" fill="#1FC0CF"/>
<path d="M 117.50,117.00 L 117.50,115.00 L 117.50,113.00 L 117.50,111.00 L 117.50,109.00 L 117.50,107.00 L 117.00,105.50 L 116.50,104.00 L 115.50,103.00 L 114.50,102.00 L 113.00,101.50 L 111.50,101.00 L 110.00,100.50 L 108.50,100.00 L 107.00,99.50 L 105.00,99.50 L 104.00,98.50 L 102.00,98.50 L 101.00,97.50 L 99.00,97.50 L 98.00,96.50 L 96.00,96.50 L 95.00,95.50 L 93.00,95.50 L 91.50,95.00 L 90.00,94.50 L 88.50,94.00 L 87.00,93.50 L 85.00,93.50 L 84.00,92.50 L 82.00,92.50 L 81.00,91.50 L 79.00,91.50 L 78.00,90.50 L 76.00,90.50 L 75.00,89.50 L 73.00,89.50 L 71.50,89.00 L 70.00,88.50 L 68.50,88.00 L 67.00,87.50 L 65.50,87.00 L 64.00,86.50 L 62.50,86.00 L 61.00,85.50 L 59.50,85.00 L 58.00,84.50 L 56.00,84.50 L 55.00,83.50 L 53.00,83.50 L 52.00,82.50 L 50.00,82.50 L 48.50,82.00 L 47.00,81.50 L 45.00,81.50 L 43.00,81.50 L 42.00,82.50 L 41.50,84.00 L 41.00,85.50 L 40.50,87.00 L 40.50,89.00 L 40.50,91.00 L 40.50,93.00 L 40.50,95.00 L 40.50,97.00 L 42.00,97.50 L 43.00,98.50 L 45.00,98.50 L 46.50,99.00 L 48.00,99.50 L 49.50,100.00 L 51.00,100.50 L 53.00,100.50 L 54.00,101.50 L 56.00,101.50 L 57.00,102.50 L 59.00,102.50 L 60.50,103.00 L 62.00,103.50 L 63.50,104.00 L 65.00,104.50 L 67.00,104.50 L 68.00,105.50 L 70.00,105.50 L 71.00,106.50 L 73.00,106.50 L 74.50,107.00 L 76.00,107.50 L 78.00,107.50 L 79.00,108.50 L 81.00,108.50 L 82.50,109.00 L 84.00,109.50 L 85.50,110.00 L 87.00,110.50 L 89.00,110.50 L 90.00,111.50 L 92.00,111.50 L 93.00,112.50 L 95.00,112.50 L 96.50,113.00 L 98.00,113.50 L 99.50,114.00 L 101.00,114.50 L 103.00,114.50 L 104.00,115.50 L 106.00,115.50 L 107.50,116.00 L 109.00,116.50 L 110.50,117.00 L 112.00,117.50 L 114.00,117.50 L 116.00,117.50 L 117.50,117.00 Z" fill="#1FC0CF"/>
<path d="M 183.50,118.00 L 185.00,117.50 L 187.00,117.50 L 188.00,116.50 L 190.00,116.50 L 191.50,116.00 L 193.00,115.50 L 194.50,115.00 L 196.00,114.50 L 198.00,114.50 L 199.00,113.50 L 201.00,113.50 L 202.50,113.00 L 204.00,112.50 L 205.50,112.00 L 207.00,111.50 L 208.50,111.00 L 210.00,110.50 L 212.00,110.50 L 213.00,109.50 L 215.00,109.50 L 216.50,109.00 L 218.00,108.50 L 219.50,108.00 L 221.00,107.50 L 223.00,107.50 L 224.00,106.50 L 226.00,106.50 L 227.50,106.00 L 229.00,105.50 L 230.50,105.00 L 232.00,104.50 L 234.00,104.50 L 235.00,103.50 L 237.00,103.50 L 238.00,102.50 L 240.00,102.50 L 242.00,102.50 L 243.00,101.50 L 245.00,101.50 L 246.00,100.50 L 248.00,100.50 L 249.50,100.00 L 251.00,99.50 L 252.50,99.00 L 254.00,98.50 L 255.50,98.00 L 257.00,97.50 L 258.50,97.00 L 259.00,95.50 L 259.50,94.00 L 259.50,92.00 L 259.50,90.00 L 259.50,88.00 L 259.50,86.00 L 258.50,85.00 L 258.00,83.50 L 257.00,82.50 L 255.50,82.00 L 254.00,81.50 L 252.00,81.50 L 250.50,82.00 L 249.00,82.50 L 247.00,82.50 L 246.00,83.50 L 244.00,83.50 L 242.50,84.00 L 241.00,84.50 L 239.50,85.00 L 238.00,85.50 L 236.50,86.00 L 235.00,86.50 L 233.00,86.50 L 232.00,87.50 L 230.00,87.50 L 229.00,88.50 L 227.00,88.50 L 226.00,89.50 L 224.00,89.50 L 223.00,90.50 L 221.00,90.50 L 220.00,91.50 L 218.00,91.50 L 216.50,92.00 L 215.00,92.50 L 213.50,93.00 L 212.00,93.50 L 210.50,94.00 L 209.00,94.50 L 207.00,94.50 L 206.00,95.50 L 204.00,95.50 L 203.00,96.50 L 201.00,96.50 L 200.00,97.50 L 198.00,97.50 L 197.00,98.50 L 195.00,98.50 L 193.50,99.00 L 192.00,99.50 L 190.50,100.00 L 189.00,100.50 L 187.50,101.00 L 186.00,101.50 L 185.00,102.50 L 184.00,103.50 L 183.00,104.50 L 182.50,106.00 L 181.50,107.00 L 181.50,109.00 L 181.50,111.00 L 181.50,113.00 L 181.50,115.00 L 181.50,117.00 L 182.00,118.50 L 183.50,118.00 Z" fill="#1FC0CF"/>
<path d="M 258.50,169.00 L 259.50,168.00 L 259.50,166.00 L 259.50,164.00 L 259.50,162.00 L 259.50,160.00 L 259.50,158.00 L 259.50,156.00 L 259.50,154.00 L 259.50,152.00 L 259.50,150.00 L 259.50,148.00 L 259.50,146.00 L 259.50,144.00 L 259.50,142.00 L 259.50,140.00 L 259.50,138.00 L 259.50,136.00 L 259.50,134.00 L 259.50,132.00 L 259.50,130.00 L 259.50,128.00 L 259.50,126.00 L 259.50,124.00 L 259.50,122.00 L 259.50,120.00 L 259.50,118.00 L 259.50,116.00 L 259.50,114.00 L 259.50,112.00 L 259.00,110.50 L 257.50,111.00 L 256.00,111.50 L 254.00,111.50 L 253.00,112.50 L 251.00,112.50 L 249.50,113.00 L 248.00,113.50 L 246.00,113.50 L 245.00,114.50 L 243.00,114.50 L 241.50,115.00 L 240.00,115.50 L 238.50,116.00 L 237.00,116.50 L 235.00,116.50 L 234.00,117.50 L 232.00,117.50 L 231.00,118.50 L 229.00,118.50 L 227.50,119.00 L 226.00,119.50 L 224.00,119.50 L 223.00,120.50 L 221.00,120.50 L 219.50,121.00 L 218.00,121.50 L 216.50,122.00 L 215.00,122.50 L 213.00,122.50 L 212.00,123.50 L 210.00,123.50 L 208.50,124.00 L 207.00,124.50 L 205.50,125.00 L 204.00,125.50 L 202.00,125.50 L 201.00,126.50 L 199.00,126.50 L 197.50,127.00 L 196.00,127.50 L 194.50,128.00 L 193.00,128.50 L 191.00,128.50 L 190.00,129.50 L 188.00,129.50 L 187.00,130.50 L 185.00,130.50 L 183.50,131.00 L 182.50,132.00 L 181.50,133.00 L 181.50,135.00 L 181.50,137.00 L 181.50,139.00 L 181.50,141.00 L 181.50,143.00 L 181.50,145.00 L 181.50,147.00 L 181.50,149.00 L 181.50,151.00 L 181.50,153.00 L 181.50,155.00 L 181.50,157.00 L 181.50,159.00 L 181.50,161.00 L 181.50,163.00 L 181.50,165.00 L 181.50,167.00 L 181.50,169.00 L 183.00,169.50 L 185.00,169.50 L 187.00,169.50 L 189.00,169.50 L 191.00,169.50 L 193.00,169.50 L 195.00,169.50 L 197.00,169.50 L 199.00,169.50 L 201.00,169.50 L 203.00,169.50 L 205.00,169.50 L 207.00,169.50 L 209.00,169.50 L 211.00,169.50 L 213.00,169.50 L 215.00,169.50 L 217.00,169.50 L 219.00,169.50 L 221.00,169.50 L 223.00,169.50 L 225.00,169.50 L 227.00,169.50 L 229.00,169.50 L 231.00,169.50 L 233.00,169.50 L 235.00,169.50 L 237.00,169.50 L 239.00,169.50 L 241.00,169.50 L 243.00,169.50 L 245.00,169.50 L 247.00,169.50 L 249.00,169.50 L 251.00,169.50 L 253.00,169.50 L 255.00,169.50 L 257.00,169.50 L 258.50,169.00 Z" fill="#1FC0CF"/>
<path d="M 117.50,169.00 L 117.50,167.00 L 117.50,165.00 L 117.50,163.00 L 117.50,161.00 L 117.50,159.00 L 117.50,157.00 L 117.50,155.00 L 117.50,153.00 L 117.50,151.00 L 117.50,149.00 L 117.50,147.00 L 117.50,145.00 L 117.50,143.00 L 117.50,141.00 L 117.50,139.00 L 117.50,137.00 L 117.50,135.00 L 117.50,133.00 L 117.00,131.50 L 115.50,131.00 L 114.00,130.50 L 112.00,130.50 L 111.00,129.50 L 109.00,129.50 L 107.50,129.00 L 106.00,128.50 L 104.00,128.50 L 103.00,127.50 L 101.00,127.50 L 100.00,126.50 L 98.00,126.50 L 96.50,126.00 L 95.00,125.50 L 93.00,125.50 L 92.00,124.50 L 90.00,124.50 L 88.50,124.00 L 87.00,123.50 L 85.50,123.00 L 84.00,122.50 L 82.00,122.50 L 81.00,121.50 L 79.00,121.50 L 78.00,120.50 L 76.00,120.50 L 74.50,120.00 L 73.00,119.50 L 71.50,119.00 L 70.00,118.50 L 68.00,118.50 L 66.50,118.00 L 65.00,117.50 L 63.50,117.00 L 62.00,116.50 L 60.00,116.50 L 59.00,115.50 L 57.00,115.50 L 55.50,115.00 L 54.00,114.50 L 52.50,114.00 L 51.00,113.50 L 49.00,113.50 L 48.00,112.50 L 46.00,112.50 L 44.50,112.00 L 43.00,111.50 L 41.00,111.50 L 40.50,113.00 L 40.50,115.00 L 40.50,117.00 L 40.50,119.00 L 40.50,121.00 L 40.50,123.00 L 40.50,125.00 L 40.50,127.00 L 40.50,129.00 L 40.50,131.00 L 40.50,133.00 L 40.50,135.00 L 40.50,137.00 L 40.50,139.00 L 40.50,141.00 L 40.50,143.00 L 40.50,145.00 L 40.50,147.00 L 40.50,149.00 L 40.50,151.00 L 40.50,153.00 L 40.50,155.00 L 40.50,157.00 L 40.50,159.00 L 40.50,161.00 L 40.50,163.00 L 40.50,165.00 L 40.50,167.00 L 40.50,169.00 L 42.00,169.50 L 44.00,169.50 L 46.00,169.50 L 48.00,169.50 L 50.00,169.50 L 52.00,169.50 L 54.00,169.50 L 56.00,169.50 L 58.00,169.50 L 60.00,169.50 L 62.00,169.50 L 64.00,169.50 L 66.00,169.50 L 68.00,169.50 L 70.00,169.50 L 72.00,169.50 L 74.00,169.50 L 76.00,169.50 L 78.00,169.50 L 80.00,169.50 L 82.00,169.50 L 84.00,169.50 L 86.00,169.50 L 88.00,169.50 L 90.00,169.50 L 92.00,169.50 L 94.00,169.50 L 96.00,169.50 L 98.00,169.50 L 100.00,169.50 L 102.00,169.50 L 104.00,169.50 L 106.00,169.50 L 108.00,169.50 L 110.00,169.50 L 112.00,169.50 L 114.00,169.50 L 116.00,169.50 L 117.50,169.00 Z" fill="#1FC0CF"/>
<path d="M 91.00,153.50 L 89.00,153.50 L 87.00,153.50 L 85.00,153.50 L 83.00,153.50 L 81.00,153.50 L 79.00,153.50 L 77.50,153.00 L 76.00,152.50 L 74.00,152.50 L 72.00,152.50 L 70.00,152.50 L 69.00,151.50 L 67.00,151.50 L 65.00,151.50 L 64.00,150.50 L 62.50,150.00 L 62.00,148.50 L 61.50,147.00 L 61.50,145.00 L 61.50,143.00 L 61.50,141.00 L 62.50,140.00 L 63.00,138.50 L 64.00,137.50 L 65.00,136.50 L 67.00,136.50 L 68.00,135.50 L 70.00,135.50 L 71.00,136.50 L 72.00,135.50 L 73.00,136.50 L 75.00,136.50 L 77.00,136.50 L 79.00,136.50 L 80.00,137.50 L 82.00,137.50 L 84.00,137.50 L 85.50,138.00 L 87.00,138.50 L 89.00,138.50 L 90.00,139.50 L 92.00,139.50 L 93.00,140.50 L 93.50,142.00 L 94.50,143.00 L 94.50,145.00 L 94.50,147.00 L 94.50,149.00 L 94.00,150.50 L 93.00,151.50 L 92.00,152.50 L 91.00,153.50 Z" fill="#1FC0CF"/>
<path d="M 211.00,154.50 L 209.00,154.50 L 208.00,153.50 L 206.50,153.00 L 205.50,152.00 L 204.50,151.00 L 203.50,150.00 L 203.50,148.00 L 203.50,146.00 L 203.50,144.00 L 203.50,142.00 L 204.50,141.00 L 205.50,140.00 L 206.50,139.00 L 208.00,138.50 L 209.50,138.00 L 211.00,137.50 L 213.00,137.50 L 215.00,137.50 L 216.00,136.50 L 218.00,136.50 L 220.00,136.50 L 222.00,136.50 L 224.00,136.50 L 225.50,136.00 L 227.00,135.50 L 229.00,135.50 L 230.50,136.00 L 232.00,136.50 L 233.50,137.00 L 234.50,138.00 L 235.50,139.00 L 235.50,141.00 L 236.00,142.50 L 236.50,144.00 L 236.00,145.50 L 235.50,147.00 L 235.50,149.00 L 234.50,150.00 L 233.00,150.50 L 232.00,151.50 L 230.00,151.50 L 228.00,151.50 L 226.50,152.00 L 225.00,152.50 L 223.00,152.50 L 221.00,152.50 L 219.50,153.00 L 218.00,153.50 L 216.00,153.50 L 214.00,153.50 L 212.00,153.50 L 211.00,154.50 Z" fill="#1FC0CF"/>
<path d="M 41.50,238.00 L 43.00,237.50 L 45.00,237.50 L 47.00,237.50 L 48.00,236.50 L 50.00,236.50 L 52.00,236.50 L 53.00,235.50 L 55.00,235.50 L 56.50,235.00 L 58.00,234.50 L 60.00,234.50 L 61.50,234.00 L 63.00,233.50 L 65.00,233.50 L 66.50,233.00 L 68.00,232.50 L 70.00,232.50 L 71.00,231.50 L 73.00,231.50 L 75.00,231.50 L 76.00,230.50 L 78.00,230.50 L 79.50,230.00 L 81.00,229.50 L 83.00,229.50 L 84.50,229.00 L 86.00,228.50 L 88.00,228.50 L 89.50,228.00 L 91.00,227.50 L 93.00,227.50 L 94.50,227.00 L 96.00,226.50 L 97.00,225.50 L 98.00,224.50 L 99.00,223.50 L 99.50,222.00 L 100.50,221.00 L 101.50,220.00 L 102.00,218.50 L 102.50,217.00 L 103.50,216.00 L 104.50,215.00 L 105.00,213.50 L 105.50,212.00 L 106.50,211.00 L 107.50,210.00 L 108.00,208.50 L 108.50,207.00 L 109.50,206.00 L 110.50,205.00 L 111.00,203.50 L 111.50,202.00 L 112.50,201.00 L 113.50,200.00 L 114.00,198.50 L 114.50,197.00 L 115.50,196.00 L 116.00,194.50 L 117.00,193.50 L 117.50,192.00 L 117.50,190.00 L 117.50,188.00 L 117.50,186.00 L 117.50,184.00 L 117.00,182.50 L 115.00,182.50 L 113.00,182.50 L 111.00,182.50 L 109.00,182.50 L 107.00,182.50 L 105.00,182.50 L 103.00,182.50 L 101.00,182.50 L 99.00,182.50 L 97.00,182.50 L 95.00,182.50 L 93.00,182.50 L 91.00,182.50 L 89.00,182.50 L 87.00,182.50 L 85.00,182.50 L 83.00,182.50 L 81.00,182.50 L 79.00,182.50 L 77.00,182.50 L 75.00,182.50 L 73.00,182.50 L 71.00,182.50 L 69.00,182.50 L 67.00,182.50 L 65.00,182.50 L 63.00,182.50 L 61.00,182.50 L 59.00,182.50 L 57.00,182.50 L 55.00,182.50 L 53.00,182.50 L 51.00,182.50 L 49.00,182.50 L 47.00,182.50 L 45.00,182.50 L 43.00,182.50 L 41.00,182.50 L 40.50,184.00 L 40.50,186.00 L 40.50,188.00 L 40.50,190.00 L 40.50,192.00 L 40.50,194.00 L 40.50,196.00 L 40.50,198.00 L 40.50,200.00 L 40.50,202.00 L 40.50,204.00 L 40.50,206.00 L 40.50,208.00 L 40.50,210.00 L 40.50,212.00 L 40.50,214.00 L 40.50,216.00 L 40.50,218.00 L 40.50,220.00 L 40.50,222.00 L 40.50,224.00 L 40.50,226.00 L 40.50,228.00 L 40.50,230.00 L 40.50,232.00 L 40.50,234.00 L 40.50,236.00 L 40.50,238.00 Z" fill="#1FC0CF"/>
<path d="M 259.50,237.00 L 259.50,235.00 L 259.50,233.00 L 259.50,231.00 L 259.50,229.00 L 259.50,227.00 L 259.50,225.00 L 259.50,223.00 L 259.50,221.00 L 259.50,219.00 L 259.50,217.00 L 259.50,215.00 L 259.50,213.00 L 259.50,211.00 L 259.50,209.00 L 259.50,207.00 L 259.50,205.00 L 259.50,203.00 L 259.50,201.00 L 259.50,199.00 L 259.50,197.00 L 259.50,195.00 L 259.50,193.00 L 259.50,191.00 L 259.50,189.00 L 259.50,187.00 L 259.50,185.00 L 259.50,183.00 L 258.00,182.50 L 256.00,182.50 L 254.00,182.50 L 252.00,182.50 L 250.00,182.50 L 248.00,182.50 L 246.00,182.50 L 244.00,182.50 L 242.00,182.50 L 240.00,182.50 L 238.00,182.50 L 236.00,182.50 L 234.00,182.50 L 232.00,182.50 L 230.00,182.50 L 228.00,182.50 L 226.00,182.50 L 224.00,182.50 L 222.00,182.50 L 220.00,182.50 L 218.00,182.50 L 216.00,182.50 L 214.00,182.50 L 212.00,182.50 L 210.00,182.50 L 208.00,182.50 L 206.00,182.50 L 204.00,182.50 L 202.00,182.50 L 200.00,182.50 L 198.00,182.50 L 196.00,182.50 L 194.00,182.50 L 192.00,182.50 L 190.00,182.50 L 188.00,182.50 L 186.00,182.50 L 184.00,182.50 L 182.00,182.50 L 181.50,184.00 L 181.50,186.00 L 181.50,188.00 L 181.50,190.00 L 182.50,191.00 L 183.00,192.50 L 183.50,194.00 L 184.50,195.00 L 185.00,196.50 L 185.50,198.00 L 186.50,199.00 L 187.00,200.50 L 187.50,202.00 L 188.50,203.00 L 189.50,204.00 L 190.00,205.50 L 190.50,207.00 L 191.50,208.00 L 192.50,209.00 L 193.00,210.50 L 194.00,211.50 L 194.50,213.00 L 195.50,214.00 L 196.00,215.50 L 197.00,216.50 L 197.50,218.00 L 198.50,219.00 L 199.00,220.50 L 200.00,221.50 L 200.50,223.00 L 201.50,224.00 L 202.50,225.00 L 203.50,226.00 L 205.00,226.50 L 206.50,227.00 L 208.00,227.50 L 210.00,227.50 L 211.00,228.50 L 213.00,228.50 L 214.50,229.00 L 216.00,229.50 L 218.00,229.50 L 220.00,229.50 L 221.00,230.50 L 223.00,230.50 L 225.00,230.50 L 226.00,231.50 L 228.00,231.50 L 230.00,231.50 L 231.00,232.50 L 233.00,232.50 L 234.50,233.00 L 236.00,233.50 L 238.00,233.50 L 239.50,234.00 L 241.00,234.50 L 243.00,234.50 L 244.50,235.00 L 246.00,235.50 L 248.00,235.50 L 249.00,236.50 L 251.00,236.50 L 252.50,237.00 L 254.00,237.50 L 256.00,237.50 L 258.00,237.50 L 259.50,237.00 Z" fill="#1FC0CF"/>
<path d="M 73.00,216.50 L 71.00,216.50 L 69.00,216.50 L 67.00,216.50 L 65.50,216.00 L 64.00,215.50 L 63.00,214.50 L 62.00,213.50 L 61.50,212.00 L 61.50,210.00 L 61.00,208.50 L 61.50,207.00 L 60.50,206.00 L 61.50,205.00 L 62.00,203.50 L 62.50,202.00 L 63.50,201.00 L 65.00,200.50 L 66.00,199.50 L 68.00,199.50 L 70.00,199.50 L 71.00,198.50 L 73.00,198.50 L 75.00,198.50 L 77.00,198.50 L 79.00,198.50 L 81.00,198.50 L 82.00,197.50 L 84.00,197.50 L 86.00,197.50 L 88.00,197.50 L 89.50,198.00 L 91.00,198.50 L 92.00,199.50 L 93.00,200.50 L 94.00,201.50 L 94.50,203.00 L 94.50,205.00 L 94.50,207.00 L 94.50,209.00 L 94.00,210.50 L 93.00,211.50 L 92.00,212.50 L 90.50,213.00 L 89.00,213.50 L 87.00,213.50 L 86.00,214.50 L 84.00,214.50 L 82.00,214.50 L 80.50,215.00 L 79.00,215.50 L 77.00,215.50 L 75.00,215.50 L 73.50,216.00 Z" fill="#1FC0CF"/>
<path d="M 231.00,216.50 L 229.00,216.50 L 227.00,216.50 L 225.50,216.00 L 224.00,215.50 L 222.00,215.50 L 220.00,215.50 L 218.50,215.00 L 217.00,214.50 L 215.00,214.50 L 213.00,214.50 L 211.00,214.50 L 210.00,213.50 L 208.00,213.50 L 207.00,212.50 L 205.50,212.00 L 204.50,211.00 L 204.00,209.50 L 203.50,208.00 L 203.50,206.00 L 203.50,204.00 L 203.50,202.00 L 204.50,201.00 L 205.50,200.00 L 206.50,199.00 L 207.50,198.00 L 209.00,197.50 L 211.00,197.50 L 213.00,197.50 L 215.00,197.50 L 217.00,197.50 L 218.50,198.00 L 220.00,198.50 L 222.00,198.50 L 224.00,198.50 L 226.00,198.50 L 227.50,199.00 L 229.00,199.50 L 231.00,199.50 L 232.50,200.00 L 234.00,200.50 L 235.00,201.50 L 235.50,203.00 L 236.50,204.00 L 236.50,206.00 L 237.50,207.00 L 237.50,209.00 L 237.00,210.50 L 236.50,212.00 L 236.00,213.50 L 235.00,214.50 L 234.00,215.50 L 232.00,215.50 L 231.00,216.50 Z" fill="#1FC0CF"/>
<path d="M 154.00,234.50 L 152.00,234.50 L 150.00,234.50 L 148.00,234.50 L 146.00,234.50 L 144.00,234.50 L 143.00,233.50 L 142.50,232.00 L 141.50,231.00 L 141.50,229.00 L 141.50,227.00 L 141.50,225.00 L 141.50,223.00 L 141.50,221.00 L 141.50,219.00 L 141.50,217.00 L 142.00,215.50 L 143.00,214.50 L 144.00,213.50 L 145.50,213.00 L 147.00,212.50 L 149.00,212.50 L 151.00,212.50 L 152.00,213.50 L 154.00,213.50 L 155.50,214.00 L 156.50,215.00 L 156.50,217.00 L 157.50,218.00 L 157.50,220.00 L 157.50,222.00 L 157.50,224.00 L 157.50,226.00 L 157.50,228.00 L 157.00,229.50 L 156.50,231.00 L 156.00,232.50 L 155.00,233.50 L 154.00,234.50 Z" fill="#1FC0CF"/>
<path d="M 50.50,290.00 L 52.00,289.50 L 53.50,289.00 L 55.00,288.50 L 56.00,287.50 L 57.00,286.50 L 57.50,285.00 L 58.50,284.00 L 59.50,283.00 L 60.00,281.50 L 61.00,280.50 L 61.50,279.00 L 62.50,278.00 L 63.50,277.00 L 64.00,275.50 L 65.00,274.50 L 65.50,273.00 L 66.50,272.00 L 67.50,271.00 L 68.00,269.50 L 68.50,268.00 L 69.50,267.00 L 70.50,266.00 L 71.00,264.50 L 72.00,263.50 L 72.50,262.00 L 73.50,261.00 L 74.50,260.00 L 75.00,258.50 L 76.00,257.50 L 76.50,256.00 L 77.50,255.00 L 78.50,254.00 L 79.00,252.50 L 80.00,251.50 L 80.50,250.00 L 81.50,249.00 L 82.00,247.50 L 83.00,246.50 L 83.50,245.00 L 84.50,244.00 L 85.50,243.00 L 84.00,242.50 L 82.00,242.50 L 81.00,243.50 L 79.00,243.50 L 77.00,243.50 L 76.00,244.50 L 74.00,244.50 L 72.00,244.50 L 71.00,245.50 L 69.00,245.50 L 67.50,246.00 L 66.00,246.50 L 64.00,246.50 L 62.50,247.00 L 61.00,247.50 L 59.00,247.50 L 58.00,248.50 L 56.00,248.50 L 54.50,249.00 L 53.00,249.50 L 51.00,249.50 L 50.00,250.50 L 48.00,250.50 L 46.50,251.00 L 45.00,251.50 L 43.00,251.50 L 41.50,252.00 L 40.50,253.00 L 40.50,255.00 L 40.50,257.00 L 40.50,259.00 L 40.50,261.00 L 40.50,263.00 L 40.50,265.00 L 40.50,267.00 L 40.50,269.00 L 40.50,271.00 L 40.50,273.00 L 40.50,275.00 L 40.50,277.00 L 40.50,279.00 L 40.50,281.00 L 40.50,283.00 L 40.50,285.00 L 40.50,287.00 L 41.00,288.50 L 42.00,289.50 L 43.00,290.50 L 45.00,290.50 L 47.00,290.50 L 49.00,290.50 L 50.50,290.00 Z" fill="#1FC0CF"/>
<path d="M 255.50,290.00 L 257.00,289.50 L 258.00,288.50 L 258.50,287.00 L 259.50,286.00 L 259.50,284.00 L 259.50,282.00 L 259.50,280.00 L 259.50,278.00 L 259.50,276.00 L 259.50,274.00 L 259.50,272.00 L 259.50,270.00 L 259.50,268.00 L 259.50,266.00 L 259.50,264.00 L 259.50,262.00 L 259.50,260.00 L 259.50,258.00 L 259.50,256.00 L 259.50,254.00 L 259.00,252.50 L 258.00,251.50 L 256.00,251.50 L 254.50,251.00 L 253.00,250.50 L 251.00,250.50 L 249.50,250.00 L 248.00,249.50 L 246.00,249.50 L 245.00,248.50 L 243.00,248.50 L 241.50,248.00 L 240.00,247.50 L 238.00,247.50 L 237.00,246.50 L 235.00,246.50 L 233.00,246.50 L 232.00,245.50 L 230.00,245.50 L 228.00,245.50 L 227.00,244.50 L 225.00,244.50 L 223.50,244.00 L 222.00,243.50 L 220.00,243.50 L 218.50,243.00 L 217.00,242.50 L 215.00,242.50 L 213.50,243.00 L 214.00,244.50 L 214.50,246.00 L 215.50,247.00 L 216.50,248.00 L 217.00,249.50 L 218.00,250.50 L 218.50,252.00 L 219.50,253.00 L 220.50,254.00 L 221.00,255.50 L 222.00,256.50 L 222.50,258.00 L 223.50,259.00 L 224.00,260.50 L 225.00,261.50 L 225.50,263.00 L 226.50,264.00 L 227.50,265.00 L 228.00,266.50 L 229.00,267.50 L 229.50,269.00 L 230.50,270.00 L 231.50,271.00 L 232.00,272.50 L 233.00,273.50 L 233.50,275.00 L 234.50,276.00 L 235.50,277.00 L 236.00,278.50 L 237.00,279.50 L 237.50,281.00 L 238.50,282.00 L 239.50,283.00 L 240.00,284.50 L 241.00,285.50 L 241.50,287.00 L 242.50,288.00 L 244.00,288.50 L 245.00,289.50 L 247.00,289.50 L 248.00,290.50 L 250.00,290.50 L 252.00,290.50 L 254.00,290.50 L 255.50,290.00 Z" fill="#1FC0CF"/>
<path d="M 154.00,271.50 L 152.00,271.50 L 150.00,271.50 L 148.00,271.50 L 146.00,271.50 L 144.00,271.50 L 143.00,270.50 L 142.00,269.50 L 141.50,268.00 L 141.50,266.00 L 141.50,264.00 L 141.50,262.00 L 141.50,260.00 L 141.50,258.00 L 141.50,256.00 L 141.50,254.00 L 141.50,252.00 L 141.50,250.00 L 141.50,248.00 L 142.00,246.50 L 142.50,245.00 L 144.00,244.50 L 145.00,243.50 L 147.00,243.50 L 149.00,243.50 L 151.00,243.50 L 152.00,244.50 L 154.00,244.50 L 155.50,245.00 L 156.50,246.00 L 157.00,247.50 L 157.50,249.00 L 157.50,251.00 L 157.50,253.00 L 158.00,254.50 L 158.50,256.00 L 158.50,258.00 L 158.50,260.00 L 158.50,262.00 L 158.50,264.00 L 157.50,265.00 L 157.50,267.00 L 157.00,268.50 L 156.50,270.00 L 155.00,270.50 L 154.00,271.50 Z" fill="#1FC0CF"/>
<path d="M 155.00,322.50 L 153.00,322.50 L 151.00,322.50 L 149.00,322.50 L 147.00,322.50 L 145.00,322.50 L 143.00,322.50 L 141.50,322.00 L 140.50,321.00 L 139.50,320.00 L 139.50,318.00 L 139.50,316.00 L 138.50,315.00 L 139.50,314.00 L 139.00,312.50 L 138.50,311.00 L 139.50,310.00 L 139.50,308.00 L 139.50,306.00 L 139.50,304.00 L 139.50,302.00 L 139.50,300.00 L 139.50,298.00 L 139.50,296.00 L 139.50,294.00 L 139.50,292.00 L 139.50,290.00 L 139.50,288.00 L 139.50,286.00 L 139.50,284.00 L 140.50,283.00 L 141.50,282.00 L 143.00,281.50 L 145.00,281.50 L 146.00,280.50 L 148.00,280.50 L 150.00,280.50 L 152.00,280.50 L 153.00,281.50 L 155.00,281.50 L 156.50,282.00 L 157.50,283.00 L 158.00,284.50 L 158.50,286.00 L 158.50,288.00 L 158.50,290.00 L 158.50,292.00 L 158.50,294.00 L 158.50,296.00 L 158.50,298.00 L 158.50,300.00 L 158.50,302.00 L 158.50,304.00 L 158.50,306.00 L 158.50,308.00 L 158.50,310.00 L 158.50,312.00 L 158.50,314.00 L 158.50,316.00 L 158.50,318.00 L 158.00,319.50 L 157.00,320.50 L 156.00,321.50 L 155.00,322.50 Z" fill="#1FC0CF"/>
</svg>