<svg xmlns="http://www.w3.org/2000/svg" width="910" height="370" viewBox="0 0 910 370">
<path d="M 289.00,297.50 L 287.00,297.50 L 285.00,297.50 L 283.00,297.50 L 281.00,297.50 L 279.00,297.50 L 277.00,297.50 L 275.00,297.50 L 273.00,297.50 L 271.00,297.50 L 269.00,297.50 L 267.00,297.50 L 265.00,297.50 L 263.00,297.50 L 261.00,297.50 L 259.00,297.50 L 257.00,297.50 L 256.00,296.50 L 254.00,296.50 L 253.00,295.50 L 252.00,294.50 L 251.50,293.00 L 250.50,292.00 L 249.50,291.00 L 249.00,289.50 L 248.50,288.00 L 247.50,287.00 L 247.00,285.50 L 246.50,284.00 L 245.50,283.00 L 245.00,281.50 L 244.00,280.50 L 243.50,279.00 L 242.50,278.00 L 242.00,276.50 L 241.50,275.00 L 240.50,274.00 L 240.00,272.50 L 239.50,271.00 L 238.50,270.00 L 238.00,268.50 L 237.50,267.00 L 236.50,266.00 L 235.50,265.00 L 235.00,263.50 L 234.50,262.00 L 233.50,261.00 L 233.00,259.50 L 232.50,258.00 L 231.50,257.00 L 231.00,255.50 L 230.50,254.00 L 229.50,253.00 L 229.00,251.50 L 228.00,250.50 L 227.50,249.00 L 226.50,248.00 L 226.00,246.50 L 225.50,245.00 L 224.50,244.00 L 224.00,242.50 L 223.50,241.00 L 222.50,240.00 L 222.00,238.50 L 221.50,237.00 L 220.50,236.00 L 220.00,234.50 L 219.00,233.50 L 218.50,232.00 L 217.50,231.00 L 217.00,229.50 L 216.50,228.00 L 215.50,227.00 L 215.00,225.50 L 214.50,224.00 L 213.50,223.00 L 213.00,221.50 L 212.50,220.00 L 211.50,219.00 L 210.50,218.00 L 210.00,216.50 L 209.50,215.00 L 208.50,214.00 L 208.00,212.50 L 207.50,211.00 L 206.50,210.00 L 206.00,208.50 L 205.00,207.50 L 204.50,206.00 L 203.50,205.00 L 203.00,203.50 L 202.50,202.00 L 201.50,201.00 L 201.00,199.50 L 200.50,198.00 L 199.50,197.00 L 199.00,195.50 L 198.50,194.00 L 197.50,193.00 L 196.50,192.00 L 196.00,190.50 L 195.50,189.00 L 194.50,188.00 L 194.00,186.50 L 193.50,185.00 L 192.50,184.00 L 192.00,182.50 L 191.50,181.00 L 190.50,180.00 L 190.00,178.50 L 189.50,177.00 L 188.50,176.00 L 187.50,175.00 L 187.00,173.50 L 186.50,172.00 L 185.50,171.00 L 185.00,169.50 L 184.00,168.50 L 183.00,167.50 L 181.00,167.50 L 180.00,166.50 L 178.00,166.50 L 177.00,167.50 L 176.50,169.00 L 176.50,171.00 L 176.50,173.00 L 176.00,174.50 L 175.50,176.00 L 174.50,177.00 L 173.00,177.50 L 172.00,178.50 L 170.00,178.50 L 168.00,178.50 L 166.00,178.50 L 164.50,178.00 L 163.00,177.50 L 162.50,176.00 L 162.50,174.00 L 161.50,173.00 L 161.50,171.00 L 161.50,169.00 L 161.00,167.50 L 159.50,167.00 L 158.00,167.50 L 156.00,167.50 L 154.50,168.00 L 153.50,169.00 L 153.00,170.50 L 152.50,172.00 L 151.50,173.00 L 151.00,174.50 L 150.50,176.00 L 149.50,177.00 L 148.50,178.00 L 148.00,179.50 L 147.50,181.00 L 146.50,182.00 L 146.00,183.50 L 145.50,185.00 L 144.50,186.00 L 144.00,187.50 L 143.50,189.00 L 142.50,190.00 L 142.00,191.50 L 141.50,193.00 L 140.50,194.00 L 140.00,195.50 L 139.00,196.50 L 138.50,198.00 L 137.50,199.00 L 137.00,200.50 L 136.50,202.00 L 135.50,203.00 L 135.00,204.50 L 134.50,206.00 L 133.50,207.00 L 133.00,208.50 L 132.50,210.00 L 131.50,211.00 L 131.00,212.50 L 130.00,213.50 L 129.50,215.00 L 128.50,216.00 L 128.00,217.50 L 127.50,219.00 L 126.50,220.00 L 126.00,221.50 L 125.50,223.00 L 124.50,224.00 L 124.00,225.50 L 123.50,227.00 L 122.50,228.00 L 122.00,229.50 L 121.50,231.00 L 120.50,232.00 L 119.50,233.00 L 119.00,234.50 L 118.50,236.00 L 117.50,237.00 L 117.00,238.50 L 116.50,240.00 L 115.50,241.00 L 115.00,242.50 L 114.50,244.00 L 113.50,245.00 L 113.00,246.50 L 112.50,248.00 L 111.50,249.00 L 111.00,250.50 L 110.00,251.50 L 109.50,253.00 L 108.50,254.00 L 108.00,255.50 L 107.50,257.00 L 106.50,258.00 L 106.00,259.50 L 105.50,261.00 L 104.50,262.00 L 104.00,263.50 L 103.50,265.00 L 102.50,266.00 L 101.50,267.00 L 101.00,268.50 L 100.50,270.00 L 99.50,271.00 L 99.00,272.50 L 98.50,274.00 L 97.50,275.00 L 97.00,276.50 L 96.50,278.00 L 95.50,279.00 L 94.50,280.00 L 94.00,281.50 L 93.50,283.00 L 92.50,284.00 L 92.00,285.50 L 91.50,287.00 L 90.50,288.00 L 89.50,289.00 L 89.00,290.50 L 88.50,292.00 L 87.50,293.00 L 86.50,294.00 L 85.50,295.00 L 84.50,296.00 L 83.00,296.50 L 82.00,297.50 L 80.00,297.50 L 78.00,297.50 L 76.00,297.50 L 74.00,297.50 L 72.00,297.50 L 70.00,297.50 L 68.00,297.50 L 66.00,297.50 L 64.00,297.50 L 62.00,297.50 L 60.00,297.50 L 58.00,297.50 L 56.00,297.50 L 54.00,297.50 L 52.00,297.50 L 50.00,297.50 L 48.00,297.50 L 47.00,296.50 L 45.00,296.50 L 44.00,295.50 L 42.50,295.00 L 41.00,294.50 L 40.00,293.50 L 39.00,292.50 L 38.00,291.50 L 37.00,290.50 L 36.00,289.50 L 35.00,288.50 L 34.00,287.50 L 33.50,286.00 L 32.50,285.00 L 31.50,284.00 L 31.00,282.50 L 30.50,281.00 L 30.00,279.50 L 29.50,278.00 L 29.50,276.00 L 29.50,274.00 L 29.50,272.00 L 29.50,270.00 L 29.50,268.00 L 29.50,266.00 L 29.50,264.00 L 29.50,262.00 L 29.50,260.00 L 29.50,258.00 L 29.50,256.00 L 29.50,254.00 L 29.50,252.00 L 29.50,250.00 L 29.50,248.00 L 29.50,246.00 L 29.50,244.00 L 29.50,242.00 L 29.50,240.00 L 29.50,238.00 L 29.50,236.00 L 29.50,234.00 L 29.50,232.00 L 29.50,230.00 L 29.50,228.00 L 29.50,226.00 L 29.50,224.00 L 29.50,222.00 L 29.50,220.00 L 29.50,218.00 L 29.50,216.00 L 29.50,214.00 L 29.50,212.00 L 29.50,210.00 L 29.50,208.00 L 29.50,206.00 L 29.50,204.00 L 29.50,202.00 L 29.50,200.00 L 29.50,198.00 L 29.50,196.00 L 29.50,194.00 L 29.50,192.00 L 29.50,190.00 L 29.50,188.00 L 29.50,186.00 L 29.50,184.00 L 29.50,182.00 L 29.50,180.00 L 29.50,178.00 L 29.50,176.00 L 29.50,174.00 L 29.50,172.00 L 29.50,170.00 L 29.50,168.00 L 29.50,166.00 L 29.50,164.00 L 29.50,162.00 L 29.50,160.00 L 29.50,158.00 L 29.50,156.00 L 29.50,154.00 L 29.50,152.00 L 29.50,150.00 L 29.50,148.00 L 29.50,146.00 L 29.50,144.00 L 29.50,142.00 L 29.50,140.00 L 29.50,138.00 L 29.50,136.00 L 29.50,134.00 L 29.50,132.00 L 29.50,130.00 L 29.50,128.00 L 29.50,126.00 L 29.50,124.00 L 29.50,122.00 L 29.50,120.00 L 29.50,118.00 L 29.50,116.00 L 29.50,114.00 L 29.50,112.00 L 29.50,110.00 L 29.50,108.00 L 29.50,106.00 L 29.50,104.00 L 29.50,102.00 L 29.50,100.00 L 29.50,98.00 L 29.50,96.00 L 29.50,94.00 L 29.50,92.00 L 29.50,90.00 L 29.50,88.00 L 29.50,86.00 L 29.50,84.00 L 29.50,82.00 L 29.50,80.00 L 29.50,78.00 L 29.50,76.00 L 29.50,74.00 L 29.50,72.00 L 29.50,70.00 L 29.50,68.00 L 29.50,66.00 L 29.50,64.00 L 29.50,62.00 L 29.50,60.00 L 29.50,58.00 L 29.50,56.00 L 29.50,54.00 L 29.50,52.00 L 29.50,50.00 L 29.50,48.00 L 29.50,46.00 L 29.50,44.00 L 29.50,42.00 L 30.00,40.50 L 30.50,39.00 L 31.00,37.50 L 31.50,36.00 L 32.50,35.00 L 33.00,33.50 L 34.00,32.50 L 35.00,31.50 L 35.50,30.00 L 36.50,29.00 L 37.50,28.00 L 39.00,27.50 L 40.00,26.50 L 41.00,25.50 L 42.00,24.50 L 43.50,24.00 L 45.00,23.50 L 46.00,22.50 L 48.00,22.50 L 49.50,22.00 L 51.00,21.50 L 53.00,21.50 L 55.00,21.50 L 57.00,21.50 L 59.00,21.50 L 61.00,21.50 L 63.00,21.50 L 65.00,21.50 L 67.00,21.50 L 69.00,21.50 L 71.00,21.50 L 73.00,21.50 L 75.00,21.50 L 77.00,21.50 L 79.00,21.50 L 81.00,21.50 L 83.00,21.50 L 85.00,21.50 L 87.00,21.50 L 89.00,21.50 L 91.00,21.50 L 93.00,21.50 L 95.00,21.50 L 97.00,21.50 L 99.00,21.50 L 101.00,21.50 L 103.00,21.50 L 105.00,21.50 L 107.00,21.50 L 109.00,21.50 L 111.00,21.50 L 113.00,21.50 L 115.00,21.50 L 117.00,21.50 L 119.00,21.50 L 121.00,21.50 L 123.00,21.50 L 125.00,21.50 L 127.00,21.50 L 129.00,21.50 L 131.00,21.50 L 133.00,21.50 L 135.00,21.50 L 137.00,21.50 L 139.00,21.50 L 141.00,21.50 L 143.00,21.50 L 145.00,21.50 L 147.00,21.50 L 149.00,21.50 L 151.00,21.50 L 153.00,21.50 L 155.00,21.50 L 157.00,21.50 L 159.00,21.50 L 161.00,21.50 L 163.00,21.50 L 165.00,21.50 L 167.00,21.50 L 169.00,21.50 L 171.00,21.50 L 173.00,21.50 L 175.00,21.50 L 177.00,21.50 L 179.00,21.50 L 181.00,21.50 L 183.00,21.50 L 185.00,21.50 L 187.00,21.50 L 189.00,21.50 L 191.00,21.50 L 193.00,21.50 L 195.00,21.50 L 197.00,21.50 L 199.00,21.50 L 201.00,21.50 L 203.00,21.50 L 205.00,21.50 L 207.00,21.50 L 209.00,21.50 L 211.00,21.50 L 213.00,21.50 L 215.00,21.50 L 217.00,21.50 L 219.00,21.50 L 221.00,21.50 L 223.00,21.50 L 225.00,21.50 L 227.00,21.50 L 229.00,21.50 L 231.00,21.50 L 233.00,21.50 L 235.00,21.50 L 237.00,21.50 L 239.00,21.50 L 241.00,21.50 L 243.00,21.50 L 245.00,21.50 L 247.00,21.50 L 249.00,21.50 L 251.00,21.50 L 253.00,21.50 L 255.00,21.50 L 257.00,21.50 L 259.00,21.50 L 261.00,21.50 L 263.00,21.50 L 265.00,21.50 L 267.00,21.50 L 269.00,21.50 L 271.00,21.50 L 273.00,21.50 L 275.00,21.50 L 277.00,21.50 L 279.00,21.50 L 281.00,21.50 L 283.00,21.50 L 285.00,21.50 L 287.00,21.50 L 288.50,22.00 L 290.00,22.50 L 291.50,23.00 L 293.00,23.50 L 294.00,24.50 L 295.50,25.00 L 297.00,25.50 L 298.00,26.50 L 299.00,27.50 L 300.50,28.00 L 301.50,29.00 L 302.50,30.00 L 303.50,31.00 L 304.00,32.50 L 305.00,33.50 L 305.50,35.00 L 306.50,36.00 L 307.00,37.50 L 307.50,39.00 L 308.00,40.50 L 308.50,42.00 L 309.00,43.50 L 309.50,45.00 L 309.50,47.00 L 309.50,49.00 L 309.50,51.00 L 309.50,53.00 L 309.50,55.00 L 309.50,57.00 L 309.50,59.00 L 309.50,61.00 L 309.50,63.00 L 309.50,65.00 L 309.50,67.00 L 309.50,69.00 L 309.50,71.00 L 309.50,73.00 L 309.50,75.00 L 309.50,77.00 L 309.50,79.00 L 309.50,81.00 L 309.50,83.00 L 309.50,85.00 L 309.50,87.00 L 309.50,89.00 L 309.50,91.00 L 309.50,93.00 L 309.50,95.00 L 309.50,97.00 L 309.50,99.00 L 309.50,101.00 L 309.50,103.00 L 309.50,105.00 L 309.50,107.00 L 309.50,109.00 L 309.50,111.00 L 309.50,113.00 L 309.50,115.00 L 309.50,117.00 L 309.50,119.00 L 309.50,121.00 L 309.50,123.00 L 309.50,125.00 L 309.50,127.00 L 309.50,129.00 L 309.50,131.00 L 309.50,133.00 L 309.50,135.00 L 309.50,137.00 L 309.50,139.00 L 309.50,141.00 L 309.50,143.00 L 309.50,145.00 L 309.50,147.00 L 309.50,149.00 L 309.50,151.00 L 309.50,153.00 L 309.50,155.00 L 309.50,157.00 L 309.50,159.00 L 309.50,161.00 L 309.50,163.00 L 309.50,165.00 L 309.50,167.00 L 309.50,169.00 L 309.50,171.00 L 309.50,173.00 L 309.50,175.00 L 309.50,177.00 L 309.50,179.00 L 309.50,181.00 L 309.50,183.00 L 309.50,185.00 L 309.50,187.00 L 309.50,189.00 L 309.50,191.00 L 309.50,193.00 L 309.50,195.00 L 309.50,197.00 L 309.50,199.00 L 309.50,201.00 L 309.50,203.00 L 309.50,205.00 L 309.50,207.00 L 309.50,209.00 L 309.50,211.00 L 309.50,213.00 L 309.50,215.00 L 309.50,217.00 L 309.50,219.00 L 309.50,221.00 L 309.50,223.00 L 309.50,225.00 L 309.50,227.00 L 309.50,229.00 L 309.50,231.00 L 309.50,233.00 L 309.50,235.00 L 309.50,237.00 L 309.50,239.00 L 309.50,241.00 L 309.50,243.00 L 309.50,245.00 L 309.50,247.00 L 309.50,249.00 L 309.50,251.00 L 309.50,253.00 L 309.50,255.00 L 309.50,257.00 L 309.50,259.00 L 309.50,261.00 L 309.50,263.00 L 309.50,265.00 L 309.50,267.00 L 309.50,269.00 L 309.50,271.00 L 309.50,273.00 L 309.50,275.00 L 308.50,276.00 L 308.50,278.00 L 308.00,279.50 L 307.50,281.00 L 307.00,282.50 L 306.50,284.00 L 305.50,285.00 L 305.00,286.50 L 304.00,287.50 L 303.00,288.50 L 302.00,289.50 L 301.00,290.50 L 300.00,291.50 L 299.00,292.50 L 298.00,293.50 L 296.50,294.00 L 295.00,294.50 L 294.00,295.50 L 292.50,296.00 L 291.00,296.50 L 289.50,297.00 Z" fill="#1FC0CF"/>
<path d="M 137.50,90.00 L 137.50,88.00 L 137.50,86.00 L 137.50,84.00 L 137.50,82.00 L 137.50,80.00 L 137.00,78.50 L 136.50,77.00 L 135.50,76.00 L 134.50,75.00 L 133.00,74.50 L 131.50,74.00 L 130.00,73.50 L 128.50,73.00 L 127.00,72.50 L 125.00,72.50 L 124.00,71.50 L 122.00,71.50 L 121.00,70.50 L 119.00,70.50 L 118.00,69.50 L 116.00,69.50 L 115.00,68.50 L 113.00,68.50 L 111.50,68.00 L 110.00,67.50 L 108.50,67.00 L 107.00,66.50 L 105.00,66.50 L 104.00,65.50 L 102.00,65.50 L 101.00,64.50 L 99.00,64.50 L 98.00,63.50 L 96.00,63.50 L 95.00,62.50 L 93.00,62.50 L 91.50,62.00 L 90.00,61.50 L 88.50,61.00 L 87.00,60.50 L 85.50,60.00 L 84.00,59.50 L 82.50,59.00 L 81.00,58.50 L 79.50,58.00 L 78.00,57.50 L 76.00,57.50 L 75.00,56.50 L 73.00,56.50 L 72.00,55.50 L 70.00,55.50 L 68.50,55.00 L 67.00,54.50 L 65.00,54.50 L 63.00,54.50 L 62.00,55.50 L 61.50,57.00 L 61.00,58.50 L 60.50,60.00 L 60.50,62.00 L 60.50,64.00 L 60.50,66.00 L 60.50,68.00 L 60.50,70.00 L 62.00,70.50 L 63.00,71.50 L 65.00,71.50 L 66.50,72.00 L 68.00,72.50 L 69.50,73.00 L 71.00,73.50 L 73.00,73.50 L 74.00,74.50 L 76.00,74.50 L 77.00,75.50 L 79.00,75.50 L 80.50,76.00 L 82.00,76.50 L 83.50,77.00 L 85.00,77.50 L 87.00,77.50 L 88.00,78.50 L 90.00,78.50 L 91.00,79.50 L 93.00,79.50 L 94.50,80.00 L 96.00,80.50 L 98.00,80.50 L 99.00,81.50 L 101.00,81.50 L 102.50,82.00 L 104.00,82.50 L 105.50,83.00 L 107.00,83.50 L 109.00,83.50 L 110.00,84.50 L 112.00,84.50 L 113.00,85.50 L 115.00,85.50 L 116.50,86.00 L 118.00,86.50 L 119.50,87.00 L 121.00,87.50 L 123.00,87.50 L 124.00,88.50 L 126.00,88.50 L 127.50,89.00 L 129.00,89.50 L 130.50,90.00 L 132.00,90.50 L 134.00,90.50 L 136.00,90.50 L 137.50,90.00 Z" fill="#1FC0CF"/>
<path d="M 203.50,91.00 L 205.00,90.50 L 207.00,90.50 L 208.00,89.50 L 210.00,89.50 L 211.50,89.00 L 213.00,88.50 L 214.50,88.00 L 216.00,87.50 L 218.00,87.50 L 219.00,86.50 L 221.00,86.50 L 222.50,86.00 L 224.00,85.50 L 225.50,85.00 L 227.00,84.50 L 228.50,84.00 L 230.00,83.50 L 232.00,83.50 L 233.00,82.50 L 235.00,82.50 L 236.50,82.00 L 238.00,81.50 L 239.50,81.00 L 241.00,80.50 L 243.00,80.50 L 244.00,79.50 L 246.00,79.50 L 247.50,79.00 L 249.00,78.50 L 250.50,78.00 L 252.00,77.50 L 254.00,77.50 L 255.00,76.50 L 257.00,76.50 L 258.00,75.50 L 260.00,75.50 L 262.00,75.50 L 263.00,74.50 L 265.00,74.50 L 266.00,73.50 L 268.00,73.50 L 269.50,73.00 L 271.00,72.50 L 272.50,72.00 L 274.00,71.50 L 275.50,71.00 L 277.00,70.50 L 278.50,70.00 L 279.00,68.50 L 279.50,67.00 L 279.50,65.00 L 279.50,63.00 L 279.50,61.00 L 279.50,59.00 L 278.50,58.00 L 278.00,56.50 L 277.00,55.50 L 275.50,55.00 L 274.00,54.50 L 272.00,54.50 L 270.50,55.00 L 269.00,55.50 L 267.00,55.50 L 266.00,56.50 L 264.00,56.50 L 262.50,57.00 L 261.00,57.50 L 259.50,58.00 L 258.00,58.50 L 256.50,59.00 L 255.00,59.50 L 253.00,59.50 L 252.00,60.50 L 250.00,60.50 L 249.00,61.50 L 247.00,61.50 L 246.00,62.50 L 244.00,62.50 L 243.00,63.50 L 241.00,63.50 L 240.00,64.50 L 238.00,64.50 L 236.50,65.00 L 235.00,65.50 L 233.50,66.00 L 232.00,66.50 L 230.50,67.00 L 229.00,67.50 L 227.00,67.50 L 226.00,68.50 L 224.00,68.50 L 223.00,69.50 L 221.00,69.50 L 220.00,70.50 L 218.00,70.50 L 217.00,71.50 L 215.00,71.50 L 213.50,72.00 L 212.00,72.50 L 210.50,73.00 L 209.00,73.50 L 207.50,74.00 L 206.00,74.50 L 205.00,75.50 L 204.00,76.50 L 203.00,77.50 L 202.50,79.00 L 201.50,80.00 L 201.50,82.00 L 201.50,84.00 L 201.50,86.00 L 201.50,88.00 L 201.50,90.00 L 202.00,91.50 L 203.50,91.00 Z" fill="#1FC0CF"/>
<path d="M 278.50,142.00 L 279.50,141.00 L 279.50,139.00 L 279.50,137.00 L 279.50,135.00 L 279.50,133.00 L 279.50,131.00 L 279.50,129.00 L 279.50,127.00 L 279.50,125.00 L 279.50,123.00 L 279.50,121.00 L 279.50,119.00 L 279.50,117.00 L 279.50,115.00 L 279.50,113.00 L 279.50,111.00 L 279.50,109.00 L 279.50,107.00 L 279.50,105.00 L 279.50,103.00 L 279.50,101.00 L 279.50,99.00 L 279.50,97.00 L 279.50,95.00 L 279.50,93.00 L 279.50,91.00 L 279.50,89.00 L 279.50,87.00 L 279.50,85.00 L 279.00,83.50 L 277.50,84.00 L 276.00,84.50 L 274.00,84.50 L 273.00,85.50 L 271.00,85.50 L 269.50,86.00 L 268.00,86.50 L 266.00,86.50 L 265.00,87.50 L 263.00,87.50 L 261.50,88.00 L 260.00,88.50 L 258.50,89.00 L 257.00,89.50 L 255.00,89.50 L 254.00,90.50 L 252.00,90.50 L 251.00,91.50 L 249.00,91.50 L 247.50,92.00 L 246.00,92.50 L 244.00,92.50 L 243.00,93.50 L 241.00,93.50 L 239.50,94.00 L 238.00,94.50 L 236.50,95.00 L 235.00,95.50 L 233.00,95.50 L 232.00,96.50 L 230.00,96.50 L 228.50,97.00 L 227.00,97.50 L 225.50,98.00 L 224.00,98.50 L 222.00,98.50 L 221.00,99.50 L 219.00,99.50 L 217.50,100.00 L 216.00,100.50 L 214.50,101.00 L 213.00,101.50 L 211.00,101.50 L 210.00,102.50 L 208.00,102.50 L 207.00,103.50 L 205.00,103.50 L 203.50,104.00 L 202.50,105.00 L 201.50,106.00 L 201.50,108.00 L 201.50,110.00 L 201.50,112.00 L 201.50,114.00 L 201.50,116.00 L 201.50,118.00 L 201.50,120.00 L 201.50,122.00 L 201.50,124.00 L 201.50,126.00 L 201.50,128.00 L 201.50,130.00 L 201.50,132.00 L 201.50,134.00 L 201.50,136.00 L 201.50,138.00 L 201.50,140.00 L 201.50,142.00 L 203.00,142.50 L 205.00,142.50 L 207.00,142.50 L 209.00,142.50 L 211.00,142.50 L 213.00,142.50 L 215.00,142.50 L 217.00,142.50 L 219.00,142.50 L 221.00,142.50 L 223.00,142.50 L 225.00,142.50 L 227.00,142.50 L 229.00,142.50 L 231.00,142.50 L 233.00,142.50 L 235.00,142.50 L 237.00,142.50 L 239.00,142.50 L 241.00,142.50 L 243.00,142.50 L 245.00,142.50 L 247.00,142.50 L 249.00,142.50 L 251.00,142.50 L 253.00,142.50 L 255.00,142.50 L 257.00,142.50 L 259.00,142.50 L 261.00,142.50 L 263.00,142.50 L 265.00,142.50 L 267.00,142.50 L 269.00,142.50 L 271.00,142.50 L 273.00,142.50 L 275.00,142.50 L 277.00,142.50 L 278.50,142.00 Z" fill="#1FC0CF"/>
<path d="M 137.50,142.00 L 137.50,140.00 L 137.50,138.00 L 137.50,136.00 L 137.50,134.00 L 137.50,132.00 L 137.50,130.00 L 137.50,128.00 L 137.50,126.00 L 137.50,124.00 L 137.50,122.00 L 137.50,120.00 L 137.50,118.00 L 137.50,116.00 L 137.50,114.00 L 137.50,112.00 L 137.50,110.00 L 137.50,108.00 L 137.50,106.00 L 137.00,104.50 L 135.50,104.00 L 134.00,103.50 L 132.00,103.50 L 131.00,102.50 L 129.00,102.50 L 127.50,102.00 L 126.00,101.50 L 124.00,101.50 L 123.00,100.50 L 121.00,100.50 L 120.00,99.50 L 118.00,99.50 L 116.50,99.00 L 115.00,98.50 L 113.00,98.50 L 112.00,97.50 L 110.00,97.50 L 108.50,97.00 L 107.00,96.50 L 105.50,96.00 L 104.00,95.50 L 102.00,95.50 L 101.00,94.50 L 99.00,94.50 L 98.00,93.50 L 96.00,93.50 L 94.50,93.00 L 93.00,92.50 L 91.50,92.00 L 90.00,91.50 L 88.00,91.50 L 86.50,91.00 L 85.00,90.50 L 83.50,90.00 L 82.00,89.50 L 80.00,89.50 L 79.00,88.50 L 77.00,88.50 L 75.50,88.00 L 74.00,87.50 L 72.50,87.00 L 71.00,86.50 L 69.00,86.50 L 68.00,85.50 L 66.00,85.50 L 64.50,85.00 L 63.00,84.50 L 61.00,84.50 L 60.50,86.00 L 60.50,88.00 L 60.50,90.00 L 60.50,92.00 L 60.50,94.00 L 60.50,96.00 L 60.50,98.00 L 60.50,100.00 L 60.50,102.00 L 60.50,104.00 L 60.50,106.00 L 60.50,108.00 L 60.50,110.00 L 60.50,112.00 L 60.50,114.00 L 60.50,116.00 L 60.50,118.00 L 60.50,120.00 L 60.50,122.00 L 60.50,124.00 L 60.50,126.00 L 60.50,128.00 L 60.50,130.00 L 60.50,132.00 L 60.50,134.00 L 60.50,136.00 L 60.50,138.00 L 60.50,140.00 L 60.50,142.00 L 62.00,142.50 L 64.00,142.50 L 66.00,142.50 L 68.00,142.50 L 70.00,142.50 L 72.00,142.50 L 74.00,142.50 L 76.00,142.50 L 78.00,142.50 L 80.00,142.50 L 82.00,142.50 L 84.00,142.50 L 86.00,142.50 L 88.00,142.50 L 90.00,142.50 L 92.00,142.50 L 94.00,142.50 L 96.00,142.50 L 98.00,142.50 L 100.00,142.50 L 102.00,142.50 L 104.00,142.50 L 106.00,142.50 L 108.00,142.50 L 110.00,142.50 L 112.00,142.50 L 114.00,142.50 L 116.00,142.50 L 118.00,142.50 L 120.00,142.50 L 122.00,142.50 L 124.00,142.50 L 126.00,142.50 L 128.00,142.50 L 130.00,142.50 L 132.00,142.50 L 134.00,142.50 L 136.00,142.50 L 137.50,142.00 Z" fill="#1FC0CF"/>
<path d="M 111.00,126.50 L 109.00,126.50 L 107.00,126.50 L 105.00,126.50 L 103.00,126.50 L 101.00,126.50 L 99.00,126.50 L 97.50,126.00 L 96.00,125.50 L 94.00,125.50 L 92.00,125.50 L 90.00,125.50 L 89.00,124.50 L 87.00,124.50 L 85.00,124.50 L 84.00,123.50 L 82.50,123.00 L 82.00,121.50 L 81.50,120.00 L 81.50,118.00 L 81.50,116.00 L 81.50,114.00 L 82.50,113.00 L 83.00,111.50 L 84.00,110.50 L 85.00,109.50 L 87.00,109.50 L 88.00,108.50 L 90.00,108.50 L 91.00,109.50 L 92.00,108.50 L 93.00,109.50 L 95.00,109.50 L 97.00,109.50 L 99.00,109.50 L 100.00,110.50 L 102.00,110.50 L 104.00,110.50 L 105.50,111.00 L 107.00,111.50 L 109.00,111.50 L 110.00,112.50 L 112.00,112.50 L 113.00,113.50 L 113.50,115.00 L 114.50,116.00 L 114.50,118.00 L 114.50,120.00 L 114.50,122.00 L 114.00,123.50 L 113.00,124.50 L 112.00,125.50 L 111.00,126.50 Z" fill="#1FC0CF"/>
<path d="M 231.00,127.50 L 229.00,127.50 L 228.00,126.50 L 226.50,126.00 L 225.50,125.00 L 224.50,124.00 L 223.50,123.00 L 223.50,121.00 L 223.50,119.00 L 223.50,117.00 L 223.50,115.00 L 224.50,114.00 L 225.50,113.00 L 226.50,112.00 L 228.00,111.50 L 229.50,111.00 L 231.00,110.50 L 233.00,110.50 L 235.00,110.50 L 236.00,109.50 L 238.00,109.50 L 240.00,109.50 L 242.00,109.50 L 244.00,109.50 L 245.50,109.00 L 247.00,108.50 L 249.00,108.50 L 250.50,109.00 L 252.00,109.50 L 253.50,110.00 L 254.50,111.00 L 255.50,112.00 L 255.50,114.00 L 256.00,115.50 L 256.50,117.00 L 256.00,118.50 L 255.50,120.00 L 255.50,122.00 L 254.50,123.00 L 253.00,123.50 L 252.00,124.50 L 250.00,124.50 L 248.00,124.50 L 246.50,125.00 L 245.00,125.50 L 243.00,125.50 L 241.00,125.50 L 239.50,126.00 L 238.00,126.50 L 236.00,126.50 L 234.00,126.50 L 232.00,126.50 L 231.00,127.50 Z" fill="#1FC0CF"/>
<path d="M 61.50,211.00 L 63.00,210.50 L 65.00,210.50 L 67.00,210.50 L 68.00,209.50 L 70.00,209.50 L 72.00,209.50 L 73.00,208.50 L 75.00,208.50 L 76.50,208.00 L 78.00,207.50 L 80.00,207.50 L 81.50,207.00 L 83.00,206.50 L 85.00,206.50 L 86.50,206.00 L 88.00,205.50 L 90.00,205.50 L 91.00,204.50 L 93.00,204.50 L 95.00,204.50 L 96.00,203.50 L 98.00,203.50 L 99.50,203.00 L 101.00,202.50 L 103.00,202.50 L 104.50,202.00 L 106.00,201.50 L 108.00,201.50 L 109.50,201.00 L 111.00,200.50 L 113.00,200.50 L 114.50,200.00 L 116.00,199.50 L 117.00,198.50 L 118.00,197.50 L 119.00,196.50 L 119.50,195.00 L 120.50,194.00 L 121.50,193.00 L 122.00,191.50 L 122.50,190.00 L 123.50,189.00 L 124.50,188.00 L 125.00,186.50 L 125.50,185.00 L 126.50,184.00 L 127.50,183.00 L 128.00,181.50 L 128.50,180.00 L 129.50,179.00 L 130.50,178.00 L 131.00,176.50 L 131.50,175.00 L 132.50,174.00 L 133.50,173.00 L 134.00,171.50 L 134.50,170.00 L 135.50,169.00 L 136.00,167.50 L 137.00,166.50 L 137.50,165.00 L 137.50,163.00 L 137.50,161.00 L 137.50,159.00 L 137.50,157.00 L 137.00,155.50 L 135.00,155.50 L 133.00,155.50 L 131.00,155.50 L 129.00,155.50 L 127.00,155.50 L 125.00,155.50 L 123.00,155.50 L 121.00,155.50 L 119.00,155.50 L 117.00,155.50 L 115.00,155.50 L 113.00,155.50 L 111.00,155.50 L 109.00,155.50 L 107.00,155.50 L 105.00,155.50 L 103.00,155.50 L 101.00,155.50 L 99.00,155.50 L 97.00,155.50 L 95.00,155.50 L 93.00,155.50 L 91.00,155.50 L 89.00,155.50 L 87.00,155.50 L 85.00,155.50 L 83.00,155.50 L 81.00,155.50 L 79.00,155.50 L 77.00,155.50 L 75.00,155.50 L 73.00,155.50 L 71.00,155.50 L 69.00,155.50 L 67.00,155.50 L 65.00,155.50 L 63.00,155.50 L 61.00,155.50 L 60.50,157.00 L 60.50,159.00 L 60.50,161.00 L 60.50,163.00 L 60.50,165.00 L 60.50,167.00 L 60.50,169.00 L 60.50,171.00 L 60.50,173.00 L 60.50,175.00 L 60.50,177.00 L 60.50,179.00 L 60.50,181.00 L 60.50,183.00 L 60.50,185.00 L 60.50,187.00 L 60.50,189.00 L 60.50,191.00 L 60.50,193.00 L 60.50,195.00 L 60.50,197.00 L 60.50,199.00 L 60.50,201.00 L 60.50,203.00 L 60.50,205.00 L 60.50,207.00 L 60.50,209.00 L 60.50,211.00 Z" fill="#1FC0CF"/>
<path d="M 279.50,210.00 L 279.50,208.00 L 279.50,206.00 L 279.50,204.00 L 279.50,202.00 L 279.50,200.00 L 279.50,198.00 L 279.50,196.00 L 279.50,194.00 L 279.50,192.00 L 279.50,190.00 L 279.50,188.00 L 279.50,186.00 L 279.50,184.00 L 279.50,182.00 L 279.50,180.00 L 279.50,178.00 L 279.50,176.00 L 279.50,174.00 L 279.50,172.00 L 279.50,170.00 L 279.50,168.00 L 279.50,166.00 L 279.50,164.00 L 279.50,162.00 L 279.50,160.00 L 279.50,158.00 L 279.50,156.00 L 278.00,155.50 L 276.00,155.50 L 274.00,155.50 L 272.00,155.50 L 270.00,155.50 L 268.00,155.50 L 266.00,155.50 L 264.00,155.50 L 262.00,155.50 L 260.00,155.50 L 258.00,155.50 L 256.00,155.50 L 254.00,155.50 L 252.00,155.50 L 250.00,155.50 L 248.00,155.50 L 246.00,155.50 L 244.00,155.50 L 242.00,155.50 L 240.00,155.50 L 238.00,155.50 L 236.00,155.50 L 234.00,155.50 L 232.00,155.50 L 230.00,155.50 L 228.00,155.50 L 226.00,155.50 L 224.00,155.50 L 222.00,155.50 L 220.00,155.50 L 218.00,155.50 L 216.00,155.50 L 214.00,155.50 L 212.00,155.50 L 210.00,155.50 L 208.00,155.50 L 206.00,155.50 L 204.00,155.50 L 202.00,155.50 L 201.50,157.00 L 201.50,159.00 L 201.50,161.00 L 201.50,163.00 L 202.50,164.00 L 203.00,165.50 L 203.50,167.00 L 204.50,168.00 L 205.00,169.50 L 205.50,171.00 L 206.50,172.00 L 207.00,173.50 L 207.50,175.00 L 208.50,176.00 L 209.50,177.00 L 210.00,178.50 L 210.50,180.00 L 211.50,181.00 L 212.50,182.00 L 213.00,183.50 L 214.00,184.50 L 214.50,186.00 L 215.50,187.00 L 216.00,188.50 L 217.00,189.50 L 217.50,191.00 L 218.50,192.00 L 219.00,193.50 L 220.00,194.50 L 220.50,196.00 L 221.50,197.00 L 222.50,198.00 L 223.50,199.00 L 225.00,199.50 L 226.50,200.00 L 228.00,200.50 L 230.00,200.50 L 231.00,201.50 L 233.00,201.50 L 234.50,202.00 L 236.00,202.50 L 238.00,202.50 L 240.00,202.50 L 241.00,203.50 L 243.00,203.50 L 245.00,203.50 L 246.00,204.50 L 248.00,204.50 L 250.00,204.50 L 251.00,205.50 L 253.00,205.50 L 254.50,206.00 L 256.00,206.50 L 258.00,206.50 L 259.50,207.00 L 261.00,207.50 L 263.00,207.50 L 264.50,208.00 L 266.00,208.50 L 268.00,208.50 L 269.00,209.50 L 271.00,209.50 L 272.50,210.00 L 274.00,210.50 L 276.00,210.50 L 278.00,210.50 L 279.50,210.00 Z" fill="#1FC0CF"/>
<path d="M 93.00,189.50 L 91.00,189.50 L 89.00,189.50 L 87.00,189.50 L 85.50,189.00 L 84.00,188.50 L 83.00,187.50 L 82.00,186.50 L 81.50,185.00 L 81.50,183.00 L 81.00,181.50 L 81.50,180.00 L 80.50,179.00 L 81.50,178.00 L 82.00,176.50 L 82.50,175.00 L 83.50,174.00 L 85.00,173.50 L 86.00,172.50 L 88.00,172.50 L 90.00,172.50 L 91.00,171.50 L 93.00,171.50 L 95.00,171.50 L 97.00,171.50 L 99.00,171.50 L 101.00,171.50 L 102.00,170.50 L 104.00,170.50 L 106.00,170.50 L 108.00,170.50 L 109.50,171.00 L 111.00,171.50 L 112.00,172.50 L 113.00,173.50 L 114.00,174.50 L 114.50,176.00 L 114.50,178.00 L 114.50,180.00 L 114.50,182.00 L 114.00,183.50 L 113.00,184.50 L 112.00,185.50 L 110.50,186.00 L 109.00,186.50 L 107.00,186.50 L 106.00,187.50 L 104.00,187.50 L 102.00,187.50 L 100.50,188.00 L 99.00,188.50 L 97.00,188.50 L 95.00,188.50 L 93.50,189.00 Z" fill="#1FC0CF"/>
<path d="M 251.00,189.50 L 249.00,189.50 L 247.00,189.50 L 245.50,189.00 L 244.00,188.50 L 242.00,188.50 L 240.00,188.50 L 238.50,188.00 L 237.00,187.50 L 235.00,187.50 L 233.00,187.50 L 231.00,187.50 L 230.00,186.50 L 228.00,186.50 L 227.00,185.50 L 225.50,185.00 L 224.50,184.00 L 224.00,182.50 L 223.50,181.00 L 223.50,179.00 L 223.50,177.00 L 223.50,175.00 L 224.50,174.00 L 225.50,173.00 L 226.50,172.00 L 227.50,171.00 L 229.00,170.50 L 231.00,170.50 L 233.00,170.50 L 235.00,170.50 L 237.00,170.50 L 238.50,171.00 L 240.00,171.50 L 242.00,171.50 L 244.00,171.50 L 246.00,171.50 L 247.50,172.00 L 249.00,172.50 L 251.00,172.50 L 252.50,173.00 L 254.00,173.50 L 255.00,174.50 L 255.50,176.00 L 256.50,177.00 L 256.50,179.00 L 257.50,180.00 L 257.50,182.00 L 257.00,183.50 L 256.50,185.00 L 256.00,186.50 L 255.00,187.50 L 254.00,188.50 L 252.00,188.50 L 251.00,189.50 Z" fill="#1FC0CF"/>
<path d="M 174.00,207.50 L 172.00,207.50 L 170.00,207.50 L 168.00,207.50 L 166.00,207.50 L 164.00,207.50 L 163.00,206.50 L 162.50,205.00 L 161.50,204.00 L 161.50,202.00 L 161.50,200.00 L 161.50,198.00 L 161.50,196.00 L 161.50,194.00 L 161.50,192.00 L 161.50,190.00 L 162.00,188.50 L 163.00,187.50 L 164.00,186.50 L 165.50,186.00 L 167.00,185.50 L 169.00,185.50 L 171.00,185.50 L 172.00,186.50 L 174.00,186.50 L 175.50,187.00 L 176.50,188.00 L 176.50,190.00 L 177.50,191.00 L 177.50,193.00 L 177.50,195.00 L 177.50,197.00 L 177.50,199.00 L 177.50,201.00 L 177.00,202.50 L 176.50,204.00 L 176.00,205.50 L 175.00,206.50 L 174.00,207.50 Z" fill="#1FC0CF"/>
<path d="M 70.50,263.00 L 72.00,262.50 L 73.50,262.00 L 75.00,261.50 L 76.00,260.50 L 77.00,259.50 L 77.50,258.00 L 78.50,257.00 L 79.50,256.00 L 80.00,254.50 L 81.00,253.50 L 81.50,252.00 L 82.50,251.00 L 83.50,250.00 L 84.00,248.50 L 85.00,247.50 L 85.50,246.00 L 86.50,245.00 L 87.50,244.00 L 88.00,242.50 L 88.50,241.00 L 89.50,240.00 L 90.50,239.00 L 91.00,237.50 L 92.00,236.50 L 92.50,235.00 L 93.50,234.00 L 94.50,233.00 L 95.00,231.50 L 96.00,230.50 L 96.50,229.00 L 97.50,228.00 L 98.50,227.00 L 99.00,225.50 L 100.00,224.50 L 100.50,223.00 L 101.50,222.00 L 102.00,220.50 L 103.00,219.50 L 103.50,218.00 L 104.50,217.00 L 105.50,216.00 L 104.00,215.50 L 102.00,215.50 L 101.00,216.50 L 99.00,216.50 L 97.00,216.50 L 96.00,217.50 L 94.00,217.50 L 92.00,217.50 L 91.00,218.50 L 89.00,218.50 L 87.50,219.00 L 86.00,219.50 L 84.00,219.50 L 82.50,220.00 L 81.00,220.50 L 79.00,220.50 L 78.00,221.50 L 76.00,221.50 L 74.50,222.00 L 73.00,222.50 L 71.00,222.50 L 70.00,223.50 L 68.00,223.50 L 66.50,224.00 L 65.00,224.50 L 63.00,224.50 L 61.50,225.00 L 60.50,226.00 L 60.50,228.00 L 60.50,230.00 L 60.50,232.00 L 60.50,234.00 L 60.50,236.00 L 60.50,238.00 L 60.50,240.00 L 60.50,242.00 L 60.50,244.00 L 60.50,246.00 L 60.50,248.00 L 60.50,250.00 L 60.50,252.00 L 60.50,254.00 L 60.50,256.00 L 60.50,258.00 L 60.50,260.00 L 61.00,261.50 L 62.00,262.50 L 63.00,263.50 L 65.00,263.50 L 67.00,263.50 L 69.00,263.50 L 70.50,263.00 Z" fill="#1FC0CF"/>
<path d="M 275.50,263.00 L 277.00,262.50 L 278.00,261.50 L 278.50,260.00 L 279.50,259.00 L 279.50,257.00 L 279.50,255.00 L 279.50,253.00 L 279.50,251.00 L 279.50,249.00 L 279.50,247.00 L 279.50,245.00 L 279.50,243.00 L 279.50,241.00 L 279.50,239.00 L 279.50,237.00 L 279.50,235.00 L 279.50,233.00 L 279.50,231.00 L 279.50,229.00 L 279.50,227.00 L 279.00,225.50 L 278.00,224.50 L 276.00,224.50 L 274.50,224.00 L 273.00,223.50 L 271.00,223.50 L 269.50,223.00 L 268.00,222.50 L 266.00,222.50 L 265.00,221.50 L 263.00,221.50 L 261.50,221.00 L 260.00,220.50 L 258.00,220.50 L 257.00,219.50 L 255.00,219.50 L 253.00,219.50 L 252.00,218.50 L 250.00,218.50 L 248.00,218.50 L 247.00,217.50 L 245.00,217.50 L 243.50,217.00 L 242.00,216.50 L 240.00,216.50 L 238.50,216.00 L 237.00,215.50 L 235.00,215.50 L 233.50,216.00 L 234.00,217.50 L 234.50,219.00 L 235.50,220.00 L 236.50,221.00 L 237.00,222.50 L 238.00,223.50 L 238.50,225.00 L 239.50,226.00 L 240.50,227.00 L 241.00,228.50 L 242.00,229.50 L 242.50,231.00 L 243.50,232.00 L 244.00,233.50 L 245.00,234.50 L 245.50,236.00 L 246.50,237.00 L 247.50,238.00 L 248.00,239.50 L 249.00,240.50 L 249.50,242.00 L 250.50,243.00 L 251.50,244.00 L 252.00,245.50 L 253.00,246.50 L 253.50,248.00 L 254.50,249.00 L 255.50,250.00 L 256.00,251.50 L 257.00,252.50 L 257.50,254.00 L 258.50,255.00 L 259.50,256.00 L 260.00,257.50 L 261.00,258.50 L 261.50,260.00 L 262.50,261.00 L 264.00,261.50 L 265.00,262.50 L 267.00,262.50 L 268.00,263.50 L 270.00,263.50 L 272.00,263.50 L 274.00,263.50 L 275.50,263.00 Z" fill="#1FC0CF"/>
<path d="M 174.00,244.50 L 172.00,244.50 L 170.00,244.50 L 168.00,244.50 L 166.00,244.50 L 164.00,244.50 L 163.00,243.50 L 162.00,242.50 L 161.50,241.00 L 161.50,239.00 L 161.50,237.00 L 161.50,235.00 L 161.50,233.00 L 161.50,231.00 L 161.50,229.00 L 161.50,227.00 L 161.50,225.00 L 161.50,223.00 L 161.50,221.00 L 162.00,219.50 L 162.50,218.00 L 164.00,217.50 L 165.00,216.50 L 167.00,216.50 L 169.00,216.50 L 171.00,216.50 L 172.00,217.50 L 174.00,217.50 L 175.50,218.00 L 176.50,219.00 L 177.00,220.50 L 177.50,222.00 L 177.50,224.00 L 177.50,226.00 L 178.00,227.50 L 178.50,229.00 L 178.50,231.00 L 178.50,233.00 L 178.50,235.00 L 178.50,237.00 L 177.50,238.00 L 177.50,240.00 L 177.00,241.50 L 176.50,243.00 L 175.00,243.50 L 174.00,244.50 Z" fill="#1FC0CF"/>
<path d="M 175.00,295.50 L 173.00,295.50 L 171.00,295.50 L 169.00,295.50 L 167.00,295.50 L 165.00,295.50 L 163.00,295.50 L 161.50,295.00 L 160.50,294.00 L 159.50,293.00 L 159.50,291.00 L 159.50,289.00 L 158.50,288.00 L 159.50,287.00 L 159.00,285.50 L 158.50,284.00 L 159.50,283.00 L 159.50,281.00 L 159.50,279.00 L 159.50,277.00 L 159.50,275.00 L 159.50,273.00 L 159.50,271.00 L 159.50,269.00 L 159.50,267.00 L 159.50,265.00 L 159.50,263.00 L 159.50,261.00 L 159.50,259.00 L 159.50,257.00 L 160.50,256.00 L 161.50,255.00 L 163.00,254.50 L 165.00,254.50 L 166.00,253.50 L 168.00,253.50 L 170.00,253.50 L 172.00,253.50 L 173.00,254.50 L 175.00,254.50 L 176.50,255.00 L 177.50,256.00 L 178.00,257.50 L 178.50,259.00 L 178.50,261.00 L 178.50,263.00 L 178.50,265.00 L 178.50,267.00 L 178.50,269.00 L 178.50,271.00 L 178.50,273.00 L 178.50,275.00 L 178.50,277.00 L 178.50,279.00 L 178.50,281.00 L 178.50,283.00 L 178.50,285.00 L 178.50,287.00 L 178.50,289.00 L 178.50,291.00 L 178.00,292.50 L 177.00,293.50 L 176.00,294.50 L 175.00,295.50 Z" fill="#1FC0CF"/>
<path d="M 391.00,159.50 L 389.50,159.00 L 388.00,158.50 L 386.00,158.50 L 384.00,158.50 L 382.00,158.50 L 381.00,157.50 L 379.00,157.50 L 378.00,156.50 L 376.00,156.50 L 375.00,155.50 L 373.00,155.50 L 372.00,154.50 L 370.50,154.00 L 369.50,153.00 L 368.00,152.50 L 367.00,151.50 L 366.00,150.50 L 365.00,149.50 L 363.50,149.00 L 362.50,148.00 L 361.50,147.00 L 360.50,146.00 L 359.50,145.00 L 359.00,143.50 L 358.00,142.50 L 357.00,141.50 L 356.50,140.00 L 355.50,139.00 L 355.00,137.50 L 354.50,136.00 L 353.50,135.00 L 353.00,133.50 L 352.50,132.00 L 352.00,130.50 L 351.50,129.00 L 351.50,127.00 L 350.50,126.00 L 350.50,124.00 L 350.50,122.00 L 349.50,121.00 L 349.50,119.00 L 349.50,117.00 L 349.50,115.00 L 349.50,113.00 L 349.50,111.00 L 349.50,109.00 L 349.50,107.00 L 349.50,105.00 L 350.50,104.00 L 350.50,102.00 L 351.00,100.50 L 351.50,99.00 L 351.50,97.00 L 352.50,96.00 L 352.50,94.00 L 353.50,93.00 L 354.00,91.50 L 354.50,90.00 L 355.50,89.00 L 356.00,87.50 L 356.50,86.00 L 357.50,85.00 L 358.50,84.00 L 359.00,82.50 L 360.00,81.50 L 361.00,80.50 L 362.00,79.50 L 363.00,78.50 L 364.00,77.50 L 365.00,76.50 L 366.00,75.50 L 367.00,74.50 L 368.50,74.00 L 369.50,73.00 L 371.00,72.50 L 372.00,71.50 L 373.50,71.00 L 375.00,70.50 L 376.00,69.50 L 378.00,69.50 L 379.00,68.50 L 381.00,68.50 L 382.50,68.00 L 384.00,67.50 L 386.00,67.50 L 388.00,67.50 L 390.00,67.50 L 391.50,67.00 L 393.00,67.50 L 395.00,67.50 L 397.00,67.50 L 399.00,67.50 L 400.50,68.00 L 402.00,68.50 L 404.00,68.50 L 405.00,69.50 L 407.00,69.50 L 408.00,70.50 L 409.50,71.00 L 411.00,71.50 L 412.00,72.50 L 413.50,73.00 L 414.50,74.00 L 416.00,74.50 L 417.00,75.50 L 418.00,76.50 L 419.00,77.50 L 420.00,78.50 L 421.00,79.50 L 421.50,81.00 L 422.50,82.00 L 423.50,83.00 L 424.00,84.50 L 425.00,85.50 L 425.50,87.00 L 426.00,88.50 L 426.50,90.00 L 427.50,91.00 L 427.50,93.00 L 428.00,94.50 L 428.50,96.00 L 428.00,97.50 L 426.00,97.50 L 425.00,98.50 L 423.00,98.50 L 421.00,98.50 L 419.50,99.00 L 418.00,99.50 L 416.00,99.50 L 415.00,100.50 L 413.00,100.50 L 411.50,100.00 L 411.50,98.00 L 410.50,97.00 L 410.50,95.00 L 409.50,94.00 L 409.00,92.50 L 408.00,91.50 L 407.50,90.00 L 406.50,89.00 L 405.00,88.50 L 404.00,87.50 L 403.00,86.50 L 402.00,85.50 L 400.50,85.00 L 399.00,84.50 L 397.50,84.00 L 396.00,83.50 L 394.00,83.50 L 392.00,83.50 L 390.00,83.50 L 388.00,83.50 L 386.00,83.50 L 385.00,84.50 L 383.00,84.50 L 382.00,85.50 L 380.50,86.00 L 379.00,86.50 L 378.00,87.50 L 377.00,88.50 L 376.00,89.50 L 375.00,90.50 L 374.00,91.50 L 373.00,92.50 L 372.50,94.00 L 371.50,95.00 L 371.00,96.50 L 370.50,98.00 L 369.50,99.00 L 369.50,101.00 L 369.00,102.50 L 368.50,104.00 L 368.50,106.00 L 368.50,108.00 L 367.50,109.00 L 367.50,111.00 L 367.50,113.00 L 367.50,115.00 L 367.50,117.00 L 368.00,118.50 L 368.50,120.00 L 368.50,122.00 L 369.00,123.50 L 369.50,125.00 L 369.50,127.00 L 370.50,128.00 L 371.00,129.50 L 371.50,131.00 L 372.50,132.00 L 373.00,133.50 L 374.00,134.50 L 375.00,135.50 L 376.00,136.50 L 377.00,137.50 L 378.00,138.50 L 379.00,139.50 L 380.50,140.00 L 382.00,140.50 L 383.00,141.50 L 385.00,141.50 L 386.00,142.50 L 388.00,142.50 L 390.00,142.50 L 392.00,142.50 L 394.00,142.50 L 396.00,142.50 L 397.50,142.00 L 399.00,141.50 L 400.50,141.00 L 402.00,140.50 L 403.00,139.50 L 404.50,139.00 L 406.00,138.50 L 407.00,137.50 L 408.00,136.50 L 408.50,135.00 L 409.50,134.00 L 410.50,133.00 L 411.00,131.50 L 411.50,130.00 L 412.50,129.00 L 413.00,127.50 L 414.00,126.50 L 415.00,127.50 L 417.00,127.50 L 418.50,128.00 L 420.00,128.50 L 422.00,128.50 L 423.50,129.00 L 425.00,129.50 L 427.00,129.50 L 428.50,130.00 L 428.50,132.00 L 428.50,134.00 L 428.00,135.50 L 427.50,137.00 L 426.50,138.00 L 426.00,139.50 L 425.50,141.00 L 424.50,142.00 L 424.00,143.50 L 423.00,144.50 L 422.00,145.50 L 421.00,146.50 L 420.00,147.50 L 419.00,148.50 L 418.00,149.50 L 417.00,150.50 L 416.00,151.50 L 415.00,152.50 L 414.00,153.50 L 412.50,154.00 L 411.00,154.50 L 410.00,155.50 L 408.50,156.00 L 407.00,156.50 L 405.50,157.00 L 404.00,157.50 L 402.00,157.50 L 401.00,158.50 L 399.00,158.50 L 397.00,158.50 L 395.00,158.50 L 393.00,158.50 L 391.50,159.00 Z" fill="#1A3340"/>
<path d="M 509.00,157.50 L 508.00,156.50 L 507.50,155.00 L 507.50,153.00 L 507.50,151.00 L 507.50,149.00 L 507.50,147.00 L 507.50,145.00 L 507.50,143.00 L 507.50,141.00 L 507.50,139.00 L 507.50,137.00 L 507.50,135.00 L 507.50,133.00 L 507.50,131.00 L 507.50,129.00 L 507.50,127.00 L 507.50,125.00 L 507.50,123.00 L 507.50,121.00 L 507.50,119.00 L 507.50,117.00 L 507.50,115.00 L 507.50,113.00 L 507.50,111.00 L 507.50,109.00 L 507.50,107.00 L 507.50,105.00 L 507.50,103.00 L 507.50,101.00 L 507.50,99.00 L 507.50,97.00 L 507.50,95.00 L 507.50,93.00 L 507.50,91.00 L 507.50,89.00 L 507.50,87.00 L 507.50,85.00 L 507.50,83.00 L 507.50,81.00 L 507.50,79.00 L 507.50,77.00 L 507.50,75.00 L 507.50,73.00 L 507.50,71.00 L 507.50,69.00 L 509.00,68.50 L 511.00,68.50 L 513.00,68.50 L 515.00,68.50 L 517.00,68.50 L 519.00,68.50 L 521.00,68.50 L 523.00,68.50 L 524.50,69.00 L 524.50,71.00 L 524.50,73.00 L 524.50,75.00 L 524.50,77.00 L 524.50,79.00 L 524.50,81.00 L 524.50,83.00 L 524.50,85.00 L 524.50,87.00 L 524.50,89.00 L 524.50,91.00 L 524.50,93.00 L 524.50,95.00 L 524.50,97.00 L 524.50,99.00 L 524.50,101.00 L 524.50,103.00 L 524.50,105.00 L 524.50,107.00 L 524.50,109.00 L 524.50,111.00 L 524.50,113.00 L 524.50,115.00 L 524.50,117.00 L 524.50,119.00 L 524.50,121.00 L 524.50,123.00 L 524.50,125.00 L 524.50,127.00 L 524.50,129.00 L 524.50,131.00 L 524.50,133.00 L 524.50,135.00 L 524.50,137.00 L 524.50,139.00 L 524.50,141.00 L 524.50,143.00 L 524.50,145.00 L 524.50,147.00 L 524.50,149.00 L 524.50,151.00 L 524.50,153.00 L 524.50,155.00 L 524.00,156.50 L 522.00,156.50 L 520.00,156.50 L 518.00,156.50 L 516.00,156.50 L 514.00,156.50 L 512.00,156.50 L 510.00,156.50 L 509.00,157.50 Z" fill="#1A3340"/>
<path d="M 550.00,157.50 L 549.00,156.50 L 547.00,156.50 L 545.00,156.50 L 543.00,156.50 L 541.00,156.50 L 539.00,156.50 L 537.50,157.00 L 536.50,156.00 L 536.50,154.00 L 536.50,152.00 L 536.50,150.00 L 536.50,148.00 L 536.50,146.00 L 536.50,144.00 L 536.50,142.00 L 536.50,140.00 L 536.50,138.00 L 536.50,136.00 L 536.50,134.00 L 536.50,132.00 L 536.50,130.00 L 536.50,128.00 L 536.50,126.00 L 536.50,124.00 L 536.50,122.00 L 536.50,120.00 L 536.50,118.00 L 536.50,116.00 L 536.50,114.00 L 536.50,112.00 L 536.50,110.00 L 536.50,108.00 L 536.50,106.00 L 536.50,104.00 L 536.50,102.00 L 536.50,100.00 L 536.50,98.00 L 536.50,96.00 L 536.50,94.00 L 536.50,92.00 L 536.50,90.00 L 536.50,88.00 L 536.50,86.00 L 536.50,84.00 L 536.50,82.00 L 536.50,80.00 L 536.50,78.00 L 536.50,76.00 L 536.50,74.00 L 536.50,72.00 L 536.50,70.00 L 537.00,68.50 L 539.00,68.50 L 541.00,68.50 L 543.00,68.50 L 545.00,68.50 L 547.00,68.50 L 549.00,68.50 L 551.00,68.50 L 552.50,69.00 L 552.50,71.00 L 552.50,73.00 L 552.50,75.00 L 552.50,77.00 L 552.50,79.00 L 552.50,81.00 L 552.50,83.00 L 552.50,85.00 L 552.50,87.00 L 552.50,89.00 L 552.50,91.00 L 552.50,93.00 L 552.50,95.00 L 552.50,97.00 L 552.50,99.00 L 552.50,101.00 L 552.50,103.00 L 552.50,105.00 L 552.50,107.00 L 552.50,109.00 L 552.50,111.00 L 552.50,113.00 L 552.50,115.00 L 552.50,117.00 L 552.50,119.00 L 552.50,121.00 L 552.50,123.00 L 552.50,125.00 L 552.50,127.00 L 552.50,129.00 L 552.50,131.00 L 552.50,133.00 L 552.50,135.00 L 552.50,137.00 L 552.50,139.00 L 552.50,141.00 L 552.50,143.00 L 552.50,145.00 L 552.50,147.00 L 552.50,149.00 L 552.50,151.00 L 552.50,153.00 L 552.50,155.00 L 552.00,156.50 L 550.50,157.00 Z" fill="#1A3340"/>
<path d="M 732.00,158.50 L 730.00,158.50 L 728.00,158.50 L 726.00,158.50 L 724.00,158.50 L 722.00,158.50 L 720.00,158.50 L 718.00,158.50 L 716.00,158.50 L 715.00,157.50 L 713.00,157.50 L 712.00,156.50 L 710.50,156.00 L 709.00,155.50 L 708.00,154.50 L 707.00,153.50 L 706.00,152.50 L 705.00,151.50 L 704.50,150.00 L 703.50,149.00 L 703.50,147.00 L 702.50,146.00 L 702.50,144.00 L 702.00,142.50 L 701.50,141.00 L 701.50,139.00 L 701.50,137.00 L 701.50,135.00 L 701.50,133.00 L 701.50,131.00 L 701.50,129.00 L 701.50,127.00 L 701.50,125.00 L 701.50,123.00 L 701.50,121.00 L 701.50,119.00 L 701.50,117.00 L 701.50,115.00 L 701.50,113.00 L 701.50,111.00 L 701.50,109.00 L 701.00,107.50 L 699.00,107.50 L 697.00,107.50 L 695.00,107.50 L 694.00,106.50 L 692.00,106.50 L 691.50,105.00 L 691.50,103.00 L 691.50,101.00 L 691.50,99.00 L 691.50,97.00 L 691.50,95.00 L 693.00,94.50 L 695.00,94.50 L 697.00,94.50 L 699.00,94.50 L 701.00,94.50 L 701.50,93.00 L 701.50,91.00 L 701.50,89.00 L 701.50,87.00 L 701.50,85.00 L 701.50,83.00 L 701.50,81.00 L 701.50,79.00 L 702.00,77.50 L 703.00,76.50 L 705.00,76.50 L 707.00,76.50 L 709.00,76.50 L 711.00,76.50 L 713.00,76.50 L 715.00,76.50 L 717.00,76.50 L 718.00,77.50 L 718.50,79.00 L 718.50,81.00 L 717.50,82.00 L 718.00,83.50 L 718.50,85.00 L 717.50,86.00 L 717.50,88.00 L 717.50,90.00 L 717.50,92.00 L 718.00,93.50 L 719.00,94.50 L 721.00,94.50 L 723.00,94.50 L 725.00,94.50 L 727.00,94.50 L 729.00,94.50 L 731.00,94.50 L 733.00,94.50 L 734.50,95.00 L 734.50,97.00 L 734.50,99.00 L 734.50,101.00 L 734.50,103.00 L 734.50,105.00 L 734.50,107.00 L 733.00,107.50 L 731.00,107.50 L 729.00,107.50 L 727.00,107.50 L 725.00,107.50 L 723.50,107.00 L 722.00,106.50 L 721.00,107.50 L 720.00,106.50 L 719.00,107.50 L 717.50,108.00 L 717.50,110.00 L 717.50,112.00 L 717.50,114.00 L 717.50,116.00 L 717.50,118.00 L 717.50,120.00 L 717.50,122.00 L 717.50,124.00 L 718.50,125.00 L 718.50,127.00 L 718.50,129.00 L 718.50,131.00 L 718.50,133.00 L 718.50,135.00 L 718.50,137.00 L 718.50,139.00 L 719.50,140.00 L 720.00,141.50 L 721.00,142.50 L 722.50,143.00 L 724.00,143.50 L 726.00,143.50 L 728.00,143.50 L 730.00,143.50 L 731.50,143.00 L 733.00,142.50 L 734.50,143.00 L 734.50,145.00 L 734.50,147.00 L 734.50,149.00 L 734.50,151.00 L 734.50,153.00 L 735.50,154.00 L 735.50,156.00 L 734.50,157.00 L 733.00,157.50 L 732.00,158.50 Z" fill="#1A3340"/>
<path d="M 468.00,159.50 L 466.50,159.00 L 465.00,158.50 L 463.00,158.50 L 461.00,158.50 L 459.50,158.00 L 458.00,157.50 L 456.00,157.50 L 455.00,156.50 L 453.50,156.00 L 452.00,155.50 L 451.00,154.50 L 450.00,153.50 L 448.50,153.00 L 447.50,152.00 L 446.50,151.00 L 445.50,150.00 L 444.50,149.00 L 443.50,148.00 L 442.50,147.00 L 441.50,146.00 L 440.50,145.00 L 440.00,143.50 L 439.00,142.50 L 438.50,141.00 L 438.00,139.50 L 437.50,138.00 L 436.50,137.00 L 436.50,135.00 L 436.00,133.50 L 435.50,132.00 L 435.50,130.00 L 435.50,128.00 L 435.50,126.00 L 435.50,124.00 L 435.50,122.00 L 435.50,120.00 L 435.50,118.00 L 436.50,117.00 L 436.50,115.00 L 437.00,113.50 L 437.50,112.00 L 438.50,111.00 L 439.00,109.50 L 439.50,108.00 L 440.50,107.00 L 441.00,105.50 L 442.00,104.50 L 443.00,103.50 L 444.00,102.50 L 444.50,101.00 L 445.50,100.00 L 447.00,99.50 L 448.00,98.50 L 449.00,97.50 L 450.50,97.00 L 451.50,96.00 L 453.00,95.50 L 454.00,94.50 L 455.50,94.00 L 457.00,93.50 L 459.00,93.50 L 460.00,92.50 L 462.00,92.50 L 464.00,92.50 L 465.00,91.50 L 467.00,91.50 L 469.00,91.50 L 470.50,92.00 L 472.00,92.50 L 474.00,92.50 L 476.00,92.50 L 477.00,93.50 L 479.00,93.50 L 480.00,94.50 L 482.00,94.50 L 483.00,95.50 L 484.00,96.50 L 485.50,97.00 L 487.00,97.50 L 488.00,98.50 L 489.00,99.50 L 490.00,100.50 L 491.00,101.50 L 492.00,102.50 L 493.00,103.50 L 493.50,105.00 L 494.50,106.00 L 495.50,107.00 L 496.00,108.50 L 496.50,110.00 L 497.50,111.00 L 498.00,112.50 L 498.50,114.00 L 499.00,115.50 L 499.50,117.00 L 499.50,119.00 L 499.50,121.00 L 499.50,123.00 L 499.50,125.00 L 499.50,127.00 L 499.50,129.00 L 499.50,131.00 L 499.50,133.00 L 499.00,134.50 L 498.50,136.00 L 498.00,137.50 L 497.50,139.00 L 497.00,140.50 L 496.50,142.00 L 495.50,143.00 L 495.00,144.50 L 494.00,145.50 L 493.00,146.50 L 492.00,147.50 L 491.50,149.00 L 490.50,150.00 L 489.50,151.00 L 488.00,151.50 L 487.00,152.50 L 486.00,153.50 L 485.00,154.50 L 483.50,155.00 L 482.00,155.50 L 481.00,156.50 L 479.00,156.50 L 478.00,157.50 L 476.00,157.50 L 475.00,158.50 L 473.00,158.50 L 471.00,158.50 L 469.00,158.50 L 468.00,159.50 Z" fill="#1A3340"/>
<path d="M 595.00,159.50 L 593.50,159.00 L 592.00,158.50 L 590.00,158.50 L 588.00,158.50 L 586.00,158.50 L 584.50,158.00 L 583.00,157.50 L 581.50,157.00 L 580.00,156.50 L 578.50,156.00 L 577.00,155.50 L 576.00,154.50 L 574.50,154.00 L 573.50,153.00 L 572.50,152.00 L 571.50,151.00 L 570.50,150.00 L 569.50,149.00 L 568.50,148.00 L 567.50,147.00 L 566.50,146.00 L 566.00,144.50 L 565.00,143.50 L 564.50,142.00 L 563.50,141.00 L 563.50,139.00 L 562.50,138.00 L 562.50,136.00 L 561.50,135.00 L 561.50,133.00 L 561.00,131.50 L 560.50,130.00 L 560.50,128.00 L 560.50,126.00 L 560.50,124.00 L 560.50,122.00 L 561.00,120.50 L 561.50,119.00 L 561.50,117.00 L 562.00,115.50 L 562.50,114.00 L 563.00,112.50 L 563.50,111.00 L 564.00,109.50 L 565.00,108.50 L 565.50,107.00 L 566.50,106.00 L 567.00,104.50 L 568.00,103.50 L 569.00,102.50 L 569.50,101.00 L 570.50,100.00 L 571.50,99.00 L 573.00,98.50 L 574.00,97.50 L 575.00,96.50 L 576.50,96.00 L 578.00,95.50 L 579.00,94.50 L 580.50,94.00 L 582.00,93.50 L 583.50,93.00 L 585.00,92.50 L 587.00,92.50 L 589.00,92.50 L 590.50,92.00 L 592.00,92.50 L 594.00,92.50 L 596.00,92.50 L 598.00,92.50 L 600.00,92.50 L 601.00,93.50 L 603.00,93.50 L 604.00,94.50 L 605.50,95.00 L 607.00,95.50 L 608.00,96.50 L 609.50,97.00 L 610.50,98.00 L 611.50,99.00 L 613.00,99.50 L 614.00,100.50 L 614.50,102.00 L 615.50,103.00 L 616.50,104.00 L 617.50,105.00 L 618.00,106.50 L 618.50,108.00 L 619.50,109.00 L 619.50,111.00 L 620.50,112.00 L 620.50,114.00 L 621.50,115.00 L 621.50,117.00 L 621.50,119.00 L 621.50,121.00 L 622.50,122.00 L 622.50,124.00 L 622.50,126.00 L 622.50,128.00 L 621.50,129.00 L 620.00,129.50 L 618.00,129.50 L 616.00,129.50 L 614.00,129.50 L 612.00,129.50 L 610.00,129.50 L 608.00,129.50 L 606.00,129.50 L 604.00,129.50 L 602.00,129.50 L 600.00,129.50 L 598.00,129.50 L 596.00,129.50 L 594.00,129.50 L 592.00,129.50 L 590.00,129.50 L 588.00,129.50 L 586.00,129.50 L 584.00,129.50 L 582.00,129.50 L 580.00,129.50 L 578.00,129.50 L 577.50,131.00 L 578.00,132.50 L 578.50,134.00 L 579.00,135.50 L 579.50,137.00 L 580.50,138.00 L 581.00,139.50 L 582.00,140.50 L 583.00,141.50 L 584.00,142.50 L 585.50,143.00 L 587.00,143.50 L 588.50,144.00 L 590.00,144.50 L 592.00,144.50 L 594.00,144.50 L 596.00,144.50 L 598.00,144.50 L 599.00,143.50 L 601.00,143.50 L 602.00,142.50 L 603.50,142.00 L 604.50,141.00 L 605.50,140.00 L 606.50,139.00 L 607.50,138.00 L 609.00,138.50 L 610.50,139.00 L 612.00,139.50 L 613.50,140.00 L 615.00,140.50 L 616.00,141.50 L 617.50,142.00 L 619.00,142.50 L 620.50,143.00 L 620.50,145.00 L 619.50,146.00 L 618.50,147.00 L 617.50,148.00 L 616.50,149.00 L 616.00,150.50 L 615.00,151.50 L 614.00,152.50 L 612.50,153.00 L 611.50,154.00 L 610.00,154.50 L 609.00,155.50 L 607.50,156.00 L 606.00,156.50 L 605.00,157.50 L 603.00,157.50 L 602.00,158.50 L 600.00,158.50 L 598.00,158.50 L 596.00,158.50 L 595.00,159.50 Z" fill="#1A3340"/>
<path d="M 659.00,159.50 L 657.50,159.00 L 656.00,158.50 L 654.00,158.50 L 652.00,158.50 L 650.50,158.00 L 649.00,157.50 L 647.00,157.50 L 646.00,156.50 L 644.50,156.00 L 643.00,155.50 L 642.00,154.50 L 641.00,153.50 L 639.50,153.00 L 638.50,152.00 L 637.50,151.00 L 636.50,150.00 L 635.50,149.00 L 634.50,148.00 L 633.50,147.00 L 632.50,146.00 L 631.50,145.00 L 631.00,143.50 L 630.50,142.00 L 629.50,141.00 L 629.00,139.50 L 628.50,138.00 L 628.00,136.50 L 627.50,135.00 L 627.50,133.00 L 627.50,131.00 L 627.00,129.50 L 626.50,128.00 L 626.50,126.00 L 626.50,124.00 L 627.00,122.50 L 627.50,121.00 L 627.50,119.00 L 627.50,117.00 L 628.00,115.50 L 628.50,114.00 L 629.00,112.50 L 629.50,111.00 L 630.50,110.00 L 630.50,108.00 L 631.50,107.00 L 632.50,106.00 L 633.00,104.50 L 634.00,103.50 L 635.00,102.50 L 636.00,101.50 L 637.00,100.50 L 638.00,99.50 L 639.00,98.50 L 640.00,97.50 L 641.00,96.50 L 642.50,96.00 L 644.00,95.50 L 645.00,94.50 L 646.50,94.00 L 648.00,93.50 L 649.50,93.00 L 651.00,92.50 L 653.00,92.50 L 655.00,92.50 L 656.00,91.50 L 658.00,91.50 L 660.00,91.50 L 662.00,91.50 L 663.00,92.50 L 665.00,92.50 L 667.00,92.50 L 668.50,93.00 L 670.00,93.50 L 671.50,94.00 L 673.00,94.50 L 674.00,95.50 L 675.50,96.00 L 676.50,97.00 L 678.00,97.50 L 679.00,98.50 L 680.00,99.50 L 681.00,100.50 L 682.00,101.50 L 682.50,103.00 L 683.50,104.00 L 684.50,105.00 L 685.00,106.50 L 685.50,108.00 L 686.50,109.00 L 686.50,111.00 L 687.50,112.00 L 687.50,114.00 L 687.00,115.50 L 685.00,115.50 L 683.50,116.00 L 682.00,116.50 L 680.00,116.50 L 678.50,117.00 L 677.00,117.50 L 675.00,117.50 L 674.00,118.50 L 673.00,117.50 L 672.00,116.50 L 671.50,115.00 L 670.50,114.00 L 670.00,112.50 L 669.00,111.50 L 668.00,110.50 L 667.00,109.50 L 666.00,108.50 L 665.00,107.50 L 663.00,107.50 L 662.00,106.50 L 660.00,106.50 L 658.00,106.50 L 656.00,106.50 L 655.00,107.50 L 653.00,107.50 L 652.00,108.50 L 650.50,109.00 L 649.50,110.00 L 648.50,111.00 L 647.50,112.00 L 646.50,113.00 L 646.00,114.50 L 645.50,116.00 L 644.50,117.00 L 644.50,119.00 L 644.50,121.00 L 643.50,122.00 L 643.50,124.00 L 643.50,126.00 L 643.50,128.00 L 644.00,129.50 L 644.50,131.00 L 644.50,133.00 L 645.50,134.00 L 645.50,136.00 L 646.50,137.00 L 647.00,138.50 L 648.00,139.50 L 649.00,140.50 L 650.00,141.50 L 651.50,142.00 L 653.00,142.50 L 654.00,143.50 L 656.00,143.50 L 658.00,143.50 L 659.00,144.50 L 661.00,144.50 L 662.00,143.50 L 664.00,143.50 L 665.50,143.00 L 667.00,142.50 L 668.00,141.50 L 669.00,140.50 L 670.50,140.00 L 671.50,139.00 L 672.00,137.50 L 672.50,136.00 L 673.50,135.00 L 675.00,134.50 L 677.00,134.50 L 678.00,135.50 L 680.00,135.50 L 682.00,135.50 L 683.00,136.50 L 685.00,136.50 L 687.00,136.50 L 688.00,137.50 L 687.50,139.00 L 687.50,141.00 L 686.50,142.00 L 686.00,143.50 L 685.50,145.00 L 684.50,146.00 L 683.50,147.00 L 682.50,148.00 L 682.00,149.50 L 681.00,150.50 L 680.00,151.50 L 679.00,152.50 L 677.50,153.00 L 676.50,154.00 L 675.50,155.00 L 674.00,155.50 L 673.00,156.50 L 671.00,156.50 L 670.00,157.50 L 668.00,157.50 L 667.00,158.50 L 665.00,158.50 L 663.00,158.50 L 661.00,158.50 L 659.50,159.00 Z" fill="#1A3340"/>
<path d="M 771.00,159.50 L 770.00,158.50 L 768.00,158.50 L 766.00,158.50 L 764.00,158.50 L 762.00,158.50 L 761.00,157.50 L 759.00,157.50 L 758.00,156.50 L 756.50,156.00 L 755.00,155.50 L 754.00,154.50 L 752.50,154.00 L 751.50,153.00 L 750.50,152.00 L 749.00,151.50 L 748.00,150.50 L 747.00,149.50 L 746.00,148.50 L 745.00,147.50 L 744.50,146.00 L 743.50,145.00 L 742.50,144.00 L 742.00,142.50 L 741.50,141.00 L 740.50,140.00 L 740.00,138.50 L 739.50,137.00 L 739.50,135.00 L 738.50,134.00 L 738.50,132.00 L 738.50,130.00 L 738.50,128.00 L 738.50,126.00 L 738.50,124.00 L 738.50,122.00 L 738.50,120.00 L 738.50,118.00 L 739.50,117.00 L 739.50,115.00 L 740.00,113.50 L 740.50,112.00 L 741.00,110.50 L 741.50,109.00 L 742.50,108.00 L 743.00,106.50 L 744.00,105.50 L 745.00,104.50 L 745.50,103.00 L 746.50,102.00 L 747.50,101.00 L 748.50,100.00 L 749.50,99.00 L 751.00,98.50 L 752.00,97.50 L 753.00,96.50 L 754.50,96.00 L 756.00,95.50 L 757.00,94.50 L 758.50,94.00 L 760.00,93.50 L 761.50,93.00 L 763.00,92.50 L 765.00,92.50 L 766.50,92.00 L 768.00,91.50 L 770.00,91.50 L 772.00,91.50 L 773.50,92.00 L 775.00,92.50 L 777.00,92.50 L 779.00,92.50 L 780.00,93.50 L 782.00,93.50 L 783.00,94.50 L 784.50,95.00 L 786.00,95.50 L 787.00,96.50 L 788.50,97.00 L 789.50,98.00 L 790.50,99.00 L 792.00,99.50 L 793.00,100.50 L 794.00,101.50 L 795.00,102.50 L 795.50,104.00 L 796.50,105.00 L 797.50,106.00 L 798.00,107.50 L 798.50,109.00 L 799.50,110.00 L 800.00,111.50 L 800.50,113.00 L 801.50,114.00 L 801.50,116.00 L 802.00,117.50 L 802.50,119.00 L 802.50,121.00 L 802.50,123.00 L 802.50,125.00 L 802.50,127.00 L 802.50,129.00 L 802.50,131.00 L 802.50,133.00 L 801.50,134.00 L 801.50,136.00 L 801.00,137.50 L 800.50,139.00 L 799.50,140.00 L 799.00,141.50 L 798.50,143.00 L 797.50,144.00 L 797.00,145.50 L 796.00,146.50 L 795.00,147.50 L 794.50,149.00 L 793.50,150.00 L 792.00,150.50 L 791.00,151.50 L 790.00,152.50 L 789.00,153.50 L 788.00,154.50 L 786.50,155.00 L 785.00,155.50 L 784.00,156.50 L 782.50,157.00 L 781.00,157.50 L 779.00,157.50 L 778.00,158.50 L 776.00,158.50 L 774.00,158.50 L 772.00,158.50 L 771.00,159.50 Z" fill="#1A3340"/>
<path d="M 826.00,157.50 L 824.50,157.00 L 823.00,156.50 L 821.00,156.50 L 819.00,156.50 L 817.00,156.50 L 815.00,156.50 L 813.00,156.50 L 812.00,157.50 L 811.00,156.50 L 810.50,155.00 L 810.50,153.00 L 810.50,151.00 L 810.50,149.00 L 810.50,147.00 L 810.50,145.00 L 810.50,143.00 L 810.50,141.00 L 810.50,139.00 L 810.50,137.00 L 810.50,135.00 L 810.50,133.00 L 810.50,131.00 L 810.50,129.00 L 810.50,127.00 L 810.50,125.00 L 810.50,123.00 L 810.50,121.00 L 810.50,119.00 L 810.50,117.00 L 810.50,115.00 L 810.50,113.00 L 810.50,111.00 L 810.50,109.00 L 810.50,107.00 L 810.50,105.00 L 810.50,103.00 L 810.50,101.00 L 810.50,99.00 L 810.50,97.00 L 810.50,95.00 L 812.00,94.50 L 814.00,94.50 L 816.00,94.50 L 818.00,94.50 L 820.00,94.50 L 822.00,94.50 L 824.00,94.50 L 826.00,94.50 L 827.50,95.00 L 827.50,97.00 L 827.50,99.00 L 827.50,101.00 L 828.50,100.00 L 829.50,99.00 L 830.50,98.00 L 831.50,97.00 L 833.00,96.50 L 834.00,95.50 L 835.00,94.50 L 836.50,94.00 L 838.00,93.50 L 839.50,93.00 L 841.00,92.50 L 843.00,92.50 L 845.00,92.50 L 847.00,92.50 L 848.50,93.00 L 848.50,95.00 L 848.50,97.00 L 848.50,99.00 L 848.50,101.00 L 848.50,103.00 L 848.50,105.00 L 848.50,107.00 L 848.00,108.50 L 847.00,109.50 L 845.50,109.00 L 844.00,108.50 L 842.00,108.50 L 841.00,109.50 L 839.00,109.50 L 837.00,109.50 L 836.00,110.50 L 834.50,111.00 L 833.00,111.50 L 832.00,112.50 L 831.00,113.50 L 830.00,114.50 L 829.50,116.00 L 828.50,117.00 L 828.50,119.00 L 827.50,120.00 L 827.50,122.00 L 827.50,124.00 L 827.50,126.00 L 827.00,127.50 L 826.50,129.00 L 826.50,131.00 L 827.50,132.00 L 827.50,134.00 L 827.50,136.00 L 827.50,138.00 L 827.50,140.00 L 827.50,142.00 L 827.00,143.50 L 826.50,145.00 L 826.50,147.00 L 827.00,148.50 L 826.50,150.00 L 826.50,152.00 L 827.00,153.50 L 827.50,155.00 L 827.00,156.50 L 826.00,157.50 Z" fill="#1A3340"/>
<path d="M 605.50,117.00 L 605.50,115.00 L 604.50,114.00 L 604.00,112.50 L 603.50,111.00 L 602.50,110.00 L 601.50,109.00 L 600.50,108.00 L 599.50,107.00 L 598.00,106.50 L 596.50,106.00 L 595.00,105.50 L 593.00,105.50 L 592.00,104.50 L 590.50,105.00 L 589.00,105.50 L 587.50,106.00 L 586.00,106.50 L 584.50,107.00 L 583.50,108.00 L 582.50,109.00 L 581.50,110.00 L 580.50,111.00 L 580.00,112.50 L 579.50,114.00 L 578.50,115.00 L 578.50,117.00 L 580.00,117.50 L 582.00,117.50 L 584.00,117.50 L 586.00,117.50 L 588.00,117.50 L 590.00,117.50 L 592.00,117.50 L 594.00,117.50 L 596.00,117.50 L 598.00,117.50 L 600.00,117.50 L 602.00,117.50 L 604.00,117.50 L 605.50,117.00 Z" fill="#1A3340"/>
<path d="M 469.50,144.00 L 471.00,143.50 L 473.00,143.50 L 474.00,142.50 L 475.50,142.00 L 477.00,141.50 L 478.00,140.50 L 479.00,139.50 L 480.00,138.50 L 480.50,137.00 L 481.50,136.00 L 482.00,134.50 L 482.50,133.00 L 482.50,131.00 L 483.50,130.00 L 483.50,128.00 L 483.50,126.00 L 483.50,124.00 L 483.50,122.00 L 482.50,121.00 L 482.50,119.00 L 482.00,117.50 L 481.50,116.00 L 481.00,114.50 L 480.00,113.50 L 479.50,112.00 L 478.50,111.00 L 477.50,110.00 L 476.50,109.00 L 475.00,108.50 L 474.00,107.50 L 472.00,107.50 L 471.00,106.50 L 469.00,106.50 L 467.00,106.50 L 465.00,106.50 L 463.50,107.00 L 462.00,107.50 L 461.00,108.50 L 459.50,109.00 L 458.00,109.50 L 457.00,110.50 L 456.00,111.50 L 455.50,113.00 L 454.50,114.00 L 454.00,115.50 L 453.50,117.00 L 452.50,118.00 L 452.50,120.00 L 452.50,122.00 L 452.00,123.50 L 451.50,125.00 L 451.50,127.00 L 452.50,128.00 L 452.50,130.00 L 452.50,132.00 L 453.50,133.00 L 453.50,135.00 L 454.50,136.00 L 455.00,137.50 L 455.50,139.00 L 456.50,140.00 L 458.00,140.50 L 459.00,141.50 L 460.00,142.50 L 461.50,143.00 L 463.00,143.50 L 465.00,143.50 L 466.50,144.00 L 468.00,144.50 L 469.50,144.00 Z" fill="#1A3340"/>
<path d="M 772.50,144.00 L 774.00,143.50 L 776.00,143.50 L 777.00,142.50 L 778.50,142.00 L 779.50,141.00 L 781.00,140.50 L 782.00,139.50 L 782.50,138.00 L 783.50,137.00 L 784.00,135.50 L 784.50,134.00 L 785.50,133.00 L 785.50,131.00 L 785.50,129.00 L 786.50,128.00 L 786.50,126.00 L 786.50,124.00 L 785.50,123.00 L 785.50,121.00 L 785.50,119.00 L 785.00,117.50 L 784.50,116.00 L 784.00,114.50 L 783.00,113.50 L 782.50,112.00 L 781.50,111.00 L 780.50,110.00 L 779.50,109.00 L 778.00,108.50 L 777.00,107.50 L 775.00,107.50 L 774.00,106.50 L 772.00,106.50 L 770.00,106.50 L 768.00,106.50 L 766.00,106.50 L 765.00,107.50 L 763.50,108.00 L 762.00,108.50 L 761.00,109.50 L 760.00,110.50 L 759.00,111.50 L 758.00,112.50 L 757.50,114.00 L 756.50,115.00 L 756.00,116.50 L 755.50,118.00 L 755.50,120.00 L 754.50,121.00 L 754.50,123.00 L 754.50,125.00 L 754.50,127.00 L 754.50,129.00 L 755.00,130.50 L 755.50,132.00 L 756.00,133.50 L 756.50,135.00 L 757.00,136.50 L 758.00,137.50 L 758.50,139.00 L 759.50,140.00 L 760.50,141.00 L 762.00,141.50 L 763.00,142.50 L 764.50,143.00 L 766.00,143.50 L 768.00,143.50 L 769.50,144.00 L 771.00,144.50 L 772.50,144.00 Z" fill="#1A3340"/>
<path d="M 389.00,258.50 L 387.00,258.50 L 385.00,258.50 L 383.00,258.50 L 381.00,258.50 L 379.00,258.50 L 377.00,258.50 L 375.50,258.00 L 374.00,257.50 L 372.00,257.50 L 370.50,257.00 L 369.00,256.50 L 367.50,256.00 L 366.00,255.50 L 365.00,254.50 L 363.50,254.00 L 362.00,253.50 L 361.00,252.50 L 360.00,251.50 L 359.00,250.50 L 357.50,250.00 L 356.50,249.00 L 356.00,247.50 L 355.00,246.50 L 354.00,245.50 L 353.50,244.00 L 352.50,243.00 L 351.50,242.00 L 351.50,240.00 L 350.50,239.00 L 350.50,237.00 L 350.00,235.50 L 349.50,234.00 L 350.00,232.50 L 352.00,232.50 L 353.50,232.00 L 355.00,231.50 L 357.00,231.50 L 358.50,231.00 L 360.00,230.50 L 362.00,230.50 L 363.50,230.00 L 365.00,229.50 L 366.50,230.00 L 367.00,231.50 L 367.50,233.00 L 368.00,234.50 L 368.50,236.00 L 369.50,237.00 L 370.50,238.00 L 371.50,239.00 L 372.50,240.00 L 373.50,241.00 L 375.00,241.50 L 376.00,242.50 L 378.00,242.50 L 379.00,243.50 L 381.00,243.50 L 383.00,243.50 L 385.00,243.50 L 387.00,243.50 L 388.00,242.50 L 390.00,242.50 L 391.00,241.50 L 392.50,241.00 L 394.00,240.50 L 395.00,239.50 L 396.00,238.50 L 396.50,237.00 L 397.50,236.00 L 397.50,234.00 L 397.50,232.00 L 397.50,230.00 L 396.50,229.00 L 396.00,227.50 L 395.00,226.50 L 394.00,225.50 L 393.00,224.50 L 391.50,224.00 L 390.00,223.50 L 389.00,222.50 L 387.00,222.50 L 385.50,222.00 L 384.00,221.50 L 382.50,221.00 L 381.00,220.50 L 379.00,220.50 L 378.00,219.50 L 376.00,219.50 L 375.00,218.50 L 373.00,218.50 L 371.50,218.00 L 370.00,217.50 L 369.00,216.50 L 367.00,216.50 L 366.00,215.50 L 364.50,215.00 L 363.00,214.50 L 362.00,213.50 L 361.00,212.50 L 359.50,212.00 L 358.50,211.00 L 357.50,210.00 L 356.50,209.00 L 356.00,207.50 L 355.00,206.50 L 354.50,205.00 L 353.50,204.00 L 352.50,203.00 L 352.50,201.00 L 351.50,200.00 L 351.50,198.00 L 351.50,196.00 L 351.50,194.00 L 351.50,192.00 L 351.50,190.00 L 352.00,188.50 L 352.50,187.00 L 353.00,185.50 L 353.50,184.00 L 354.50,183.00 L 355.00,181.50 L 356.00,180.50 L 357.00,179.50 L 357.50,178.00 L 358.50,177.00 L 359.50,176.00 L 361.00,175.50 L 362.00,174.50 L 363.00,173.50 L 364.00,172.50 L 365.50,172.00 L 367.00,171.50 L 368.00,170.50 L 370.00,170.50 L 371.00,169.50 L 373.00,169.50 L 374.50,169.00 L 376.00,168.50 L 378.00,168.50 L 380.00,168.50 L 382.00,168.50 L 384.00,168.50 L 386.00,168.50 L 388.00,168.50 L 390.00,168.50 L 392.00,168.50 L 393.00,169.50 L 395.00,169.50 L 396.00,170.50 L 398.00,170.50 L 399.00,171.50 L 400.50,172.00 L 402.00,172.50 L 403.00,173.50 L 404.00,174.50 L 405.50,175.00 L 406.50,176.00 L 407.50,177.00 L 408.50,178.00 L 409.50,179.00 L 410.00,180.50 L 411.00,181.50 L 411.50,183.00 L 412.50,184.00 L 413.00,185.50 L 413.50,187.00 L 413.50,189.00 L 414.50,190.00 L 414.50,192.00 L 414.00,193.50 L 412.00,193.50 L 410.00,193.50 L 408.50,194.00 L 407.00,194.50 L 405.00,194.50 L 403.00,194.50 L 401.00,194.50 L 399.50,195.00 L 398.00,194.50 L 397.50,193.00 L 396.50,192.00 L 396.50,190.00 L 395.50,189.00 L 394.50,188.00 L 393.50,187.00 L 392.50,186.00 L 391.00,185.50 L 390.00,184.50 L 388.00,184.50 L 387.00,183.50 L 385.00,183.50 L 383.00,183.50 L 381.00,183.50 L 379.00,183.50 L 377.50,184.00 L 376.00,184.50 L 374.50,185.00 L 373.00,185.50 L 372.00,186.50 L 371.50,188.00 L 370.50,189.00 L 370.00,190.50 L 369.50,192.00 L 369.50,194.00 L 369.50,196.00 L 370.50,197.00 L 371.00,198.50 L 372.00,199.50 L 373.00,200.50 L 374.00,201.50 L 375.50,202.00 L 377.00,202.50 L 378.50,203.00 L 380.00,203.50 L 381.50,204.00 L 383.00,204.50 L 384.50,205.00 L 386.00,205.50 L 388.00,205.50 L 389.00,206.50 L 391.00,206.50 L 392.50,207.00 L 394.00,207.50 L 395.50,208.00 L 397.00,208.50 L 398.50,209.00 L 400.00,209.50 L 401.00,210.50 L 402.50,211.00 L 404.00,211.50 L 405.00,212.50 L 406.00,213.50 L 407.50,214.00 L 408.50,215.00 L 409.50,216.00 L 410.00,217.50 L 411.00,218.50 L 412.00,219.50 L 412.50,221.00 L 413.50,222.00 L 413.50,224.00 L 414.50,225.00 L 414.50,227.00 L 415.00,228.50 L 415.50,230.00 L 415.50,232.00 L 415.50,234.00 L 414.50,235.00 L 414.50,237.00 L 414.50,239.00 L 413.50,240.00 L 413.00,241.50 L 412.50,243.00 L 411.50,244.00 L 411.00,245.50 L 410.50,247.00 L 409.50,248.00 L 408.50,249.00 L 407.50,250.00 L 406.50,251.00 L 405.50,252.00 L 404.00,252.50 L 403.00,253.50 L 402.00,254.50 L 400.50,255.00 L 399.00,255.50 L 398.00,256.50 L 396.00,256.50 L 394.50,257.00 L 393.00,257.50 L 391.00,257.50 L 389.50,258.00 Z" fill="#1A3340"/>
<path d="M 453.00,258.50 L 451.00,258.50 L 449.00,258.50 L 447.00,258.50 L 446.00,257.50 L 444.00,257.50 L 442.00,257.50 L 440.50,257.00 L 439.00,256.50 L 437.50,256.00 L 436.50,255.00 L 435.00,254.50 L 434.00,253.50 L 433.00,252.50 L 432.00,251.50 L 431.50,250.00 L 430.50,249.00 L 430.00,247.50 L 429.50,246.00 L 429.00,244.50 L 428.50,243.00 L 428.50,241.00 L 428.50,239.00 L 428.50,237.00 L 428.50,235.00 L 428.50,233.00 L 428.50,231.00 L 428.50,229.00 L 428.50,227.00 L 428.50,225.00 L 428.50,223.00 L 428.50,221.00 L 428.50,219.00 L 428.50,217.00 L 428.50,215.00 L 428.50,213.00 L 428.50,211.00 L 428.50,209.00 L 428.50,207.00 L 427.00,206.50 L 425.00,206.50 L 423.00,206.50 L 421.00,206.50 L 419.00,206.50 L 417.50,206.00 L 417.50,204.00 L 417.50,202.00 L 417.50,200.00 L 417.50,198.00 L 417.50,196.00 L 417.50,194.00 L 418.50,193.00 L 420.00,193.50 L 422.00,193.50 L 424.00,193.50 L 426.00,193.50 L 427.50,193.00 L 428.50,192.00 L 427.50,191.00 L 428.50,190.00 L 428.00,188.50 L 428.50,187.00 L 427.50,186.00 L 427.50,184.00 L 428.00,182.50 L 427.50,181.00 L 428.00,179.50 L 428.50,178.00 L 427.50,177.00 L 428.50,176.00 L 430.00,176.50 L 432.00,176.50 L 434.00,176.50 L 436.00,176.50 L 438.00,176.50 L 440.00,176.50 L 442.00,176.50 L 443.00,175.50 L 444.00,176.50 L 444.50,178.00 L 444.50,180.00 L 444.50,182.00 L 444.50,184.00 L 444.50,186.00 L 444.50,188.00 L 444.50,190.00 L 444.50,192.00 L 445.00,193.50 L 447.00,193.50 L 449.00,193.50 L 451.00,193.50 L 453.00,193.50 L 455.00,193.50 L 457.00,193.50 L 459.00,193.50 L 460.50,194.00 L 461.50,195.00 L 461.50,197.00 L 461.50,199.00 L 461.50,201.00 L 461.50,203.00 L 461.50,205.00 L 460.50,206.00 L 459.00,206.50 L 457.00,206.50 L 455.00,206.50 L 453.00,206.50 L 451.00,206.50 L 449.00,206.50 L 447.00,206.50 L 445.00,206.50 L 444.50,208.00 L 444.50,210.00 L 444.50,212.00 L 444.50,214.00 L 444.50,216.00 L 444.50,218.00 L 444.50,220.00 L 444.50,222.00 L 444.50,224.00 L 444.50,226.00 L 444.50,228.00 L 444.50,230.00 L 444.50,232.00 L 444.50,234.00 L 444.50,236.00 L 445.50,237.00 L 445.50,239.00 L 446.00,240.50 L 447.00,241.50 L 448.00,242.50 L 450.00,242.50 L 451.00,243.50 L 453.00,243.50 L 455.00,243.50 L 456.00,242.50 L 458.00,242.50 L 460.00,242.50 L 461.50,243.00 L 461.50,245.00 L 461.50,247.00 L 461.50,249.00 L 461.50,251.00 L 461.50,253.00 L 461.50,255.00 L 461.00,256.50 L 460.00,257.50 L 458.00,257.50 L 456.00,257.50 L 454.00,257.50 L 453.00,258.50 Z" fill="#1A3340"/>
<path d="M 674.00,258.50 L 672.00,258.50 L 670.00,258.50 L 668.00,258.50 L 666.50,258.00 L 665.00,257.50 L 663.00,257.50 L 661.00,257.50 L 660.00,256.50 L 658.00,256.50 L 657.00,255.50 L 655.50,255.00 L 654.50,254.00 L 653.50,253.00 L 652.50,252.00 L 651.50,251.00 L 651.00,249.50 L 650.50,248.00 L 649.50,247.00 L 649.50,245.00 L 648.50,244.00 L 648.50,242.00 L 648.50,240.00 L 648.50,238.00 L 648.50,236.00 L 648.50,234.00 L 648.50,232.00 L 648.50,230.00 L 648.50,228.00 L 648.50,226.00 L 648.50,224.00 L 648.50,222.00 L 648.50,220.00 L 648.50,218.00 L 648.50,216.00 L 648.50,214.00 L 648.50,212.00 L 648.50,210.00 L 648.50,208.00 L 648.00,206.50 L 646.00,206.50 L 644.00,206.50 L 642.00,206.50 L 640.00,206.50 L 638.50,206.00 L 637.50,205.00 L 637.50,203.00 L 637.50,201.00 L 637.50,199.00 L 637.50,197.00 L 637.50,195.00 L 638.00,193.50 L 640.00,193.50 L 642.00,193.50 L 644.00,193.50 L 646.00,193.50 L 648.00,193.50 L 648.50,192.00 L 648.50,190.00 L 648.50,188.00 L 648.50,186.00 L 648.50,184.00 L 648.50,182.00 L 648.50,180.00 L 647.50,179.00 L 647.50,177.00 L 649.00,176.50 L 651.00,176.50 L 653.00,176.50 L 655.00,176.50 L 657.00,176.50 L 659.00,176.50 L 661.00,176.50 L 663.00,176.50 L 664.50,177.00 L 664.50,179.00 L 664.50,181.00 L 664.50,183.00 L 664.50,185.00 L 664.50,187.00 L 664.50,189.00 L 664.50,191.00 L 664.50,193.00 L 666.00,193.50 L 668.00,193.50 L 670.00,193.50 L 672.00,193.50 L 674.00,193.50 L 676.00,193.50 L 678.00,193.50 L 680.00,193.50 L 681.00,194.50 L 681.50,196.00 L 680.50,197.00 L 680.50,199.00 L 680.50,201.00 L 680.50,203.00 L 680.50,205.00 L 680.00,206.50 L 678.00,206.50 L 676.00,206.50 L 674.00,206.50 L 672.00,206.50 L 670.00,206.50 L 668.00,206.50 L 666.00,206.50 L 664.50,207.00 L 664.50,209.00 L 664.50,211.00 L 664.50,213.00 L 664.50,215.00 L 664.50,217.00 L 664.50,219.00 L 664.50,221.00 L 664.50,223.00 L 664.50,225.00 L 664.50,227.00 L 664.50,229.00 L 664.50,231.00 L 664.50,233.00 L 664.50,235.00 L 664.50,237.00 L 665.00,238.50 L 665.50,240.00 L 666.50,241.00 L 667.50,242.00 L 669.00,242.50 L 670.00,243.50 L 672.00,243.50 L 674.00,243.50 L 676.00,243.50 L 677.50,243.00 L 679.00,242.50 L 680.00,241.50 L 681.50,242.00 L 681.50,244.00 L 681.00,245.50 L 680.50,247.00 L 680.50,249.00 L 681.50,250.00 L 681.50,252.00 L 681.50,254.00 L 681.00,255.50 L 680.00,256.50 L 679.00,257.50 L 677.00,257.50 L 675.00,257.50 L 674.00,258.50 Z" fill="#1A3340"/>
<path d="M 479.00,257.50 L 477.00,257.50 L 475.50,257.00 L 474.00,256.50 L 472.00,256.50 L 470.00,256.50 L 469.50,255.00 L 469.50,253.00 L 469.50,251.00 L 469.50,249.00 L 469.50,247.00 L 469.50,245.00 L 469.50,243.00 L 469.50,241.00 L 469.50,239.00 L 469.50,237.00 L 469.50,235.00 L 469.50,233.00 L 469.50,231.00 L 469.50,229.00 L 469.50,227.00 L 469.50,225.00 L 469.50,223.00 L 469.50,221.00 L 469.50,219.00 L 469.50,217.00 L 469.50,215.00 L 469.50,213.00 L 469.50,211.00 L 469.50,209.00 L 469.50,207.00 L 469.50,205.00 L 469.50,203.00 L 469.50,201.00 L 469.50,199.00 L 469.50,197.00 L 469.50,195.00 L 470.00,193.50 L 472.00,193.50 L 474.00,193.50 L 476.00,193.50 L 478.00,193.50 L 480.00,193.50 L 482.00,193.50 L 483.50,193.00 L 485.00,193.50 L 485.50,195.00 L 485.50,197.00 L 485.50,199.00 L 485.50,201.00 L 486.50,200.00 L 487.50,199.00 L 488.50,198.00 L 489.50,197.00 L 490.50,196.00 L 492.00,195.50 L 493.00,194.50 L 494.00,193.50 L 495.50,193.00 L 497.00,192.50 L 499.00,192.50 L 500.00,191.50 L 502.00,191.50 L 504.00,191.50 L 506.00,191.50 L 507.00,192.50 L 507.50,194.00 L 507.50,196.00 L 507.50,198.00 L 507.50,200.00 L 507.50,202.00 L 507.50,204.00 L 507.50,206.00 L 507.00,207.50 L 506.00,208.50 L 505.00,207.50 L 503.00,207.50 L 501.00,207.50 L 499.00,207.50 L 498.00,208.50 L 496.00,208.50 L 494.50,209.00 L 493.50,210.00 L 492.00,210.50 L 491.00,211.50 L 490.00,212.50 L 489.00,213.50 L 488.50,215.00 L 487.50,216.00 L 487.00,217.50 L 486.50,219.00 L 486.50,221.00 L 485.50,222.00 L 485.50,224.00 L 485.50,226.00 L 485.50,228.00 L 485.50,230.00 L 485.50,232.00 L 485.50,234.00 L 485.50,236.00 L 485.50,238.00 L 485.50,240.00 L 485.50,242.00 L 485.50,244.00 L 485.50,246.00 L 485.50,248.00 L 485.50,250.00 L 485.50,252.00 L 485.50,254.00 L 485.50,256.00 L 484.00,256.50 L 482.00,256.50 L 480.00,256.50 L 479.00,257.50 Z" fill="#1A3340"/>
<path d="M 547.00,258.50 L 545.00,258.50 L 543.00,258.50 L 541.00,258.50 L 539.00,258.50 L 537.00,258.50 L 535.50,258.00 L 534.00,257.50 L 532.00,257.50 L 530.50,257.00 L 529.00,256.50 L 528.00,255.50 L 526.50,255.00 L 525.00,254.50 L 524.00,253.50 L 523.00,252.50 L 521.50,252.00 L 520.50,251.00 L 519.50,250.00 L 518.50,249.00 L 517.50,248.00 L 516.50,247.00 L 515.50,246.00 L 515.00,244.50 L 514.00,243.50 L 513.50,242.00 L 512.50,241.00 L 512.00,239.50 L 511.50,238.00 L 511.00,236.50 L 510.50,235.00 L 510.50,233.00 L 510.00,231.50 L 509.50,230.00 L 509.50,228.00 L 509.50,226.00 L 509.50,224.00 L 509.50,222.00 L 509.50,220.00 L 509.50,218.00 L 510.50,217.00 L 510.50,215.00 L 511.00,213.50 L 511.50,212.00 L 512.00,210.50 L 512.50,209.00 L 513.50,208.00 L 514.00,206.50 L 514.50,205.00 L 515.50,204.00 L 516.50,203.00 L 517.50,202.00 L 518.50,201.00 L 519.50,200.00 L 520.50,199.00 L 521.50,198.00 L 522.50,197.00 L 523.50,196.00 L 525.00,195.50 L 526.00,194.50 L 527.50,194.00 L 529.00,193.50 L 530.50,193.00 L 532.00,192.50 L 534.00,192.50 L 535.00,191.50 L 537.00,191.50 L 539.00,191.50 L 541.00,191.50 L 543.00,191.50 L 545.00,191.50 L 546.50,192.00 L 548.00,192.50 L 550.00,192.50 L 551.00,193.50 L 553.00,193.50 L 554.00,194.50 L 555.50,195.00 L 557.00,195.50 L 558.00,196.50 L 559.00,197.50 L 560.00,198.50 L 561.00,199.50 L 562.50,200.00 L 563.50,201.00 L 564.00,202.50 L 565.00,203.50 L 565.50,205.00 L 566.50,206.00 L 567.00,207.50 L 567.50,209.00 L 568.50,210.00 L 569.00,211.50 L 569.50,213.00 L 569.50,215.00 L 570.00,216.50 L 570.50,218.00 L 570.50,220.00 L 570.50,222.00 L 570.50,224.00 L 570.50,226.00 L 570.50,228.00 L 569.00,228.50 L 567.00,228.50 L 565.00,228.50 L 563.50,229.00 L 562.00,228.50 L 561.00,229.50 L 560.00,228.50 L 558.00,228.50 L 556.00,228.50 L 554.00,228.50 L 552.00,228.50 L 550.00,228.50 L 548.00,228.50 L 546.00,228.50 L 544.00,228.50 L 542.00,228.50 L 540.00,228.50 L 538.00,228.50 L 536.00,228.50 L 534.00,228.50 L 532.00,228.50 L 530.00,228.50 L 528.00,228.50 L 526.50,229.00 L 526.50,231.00 L 526.50,233.00 L 527.50,234.00 L 528.00,235.50 L 528.50,237.00 L 529.50,238.00 L 530.50,239.00 L 531.50,240.00 L 532.50,241.00 L 533.50,242.00 L 535.00,242.50 L 536.50,243.00 L 538.00,243.50 L 540.00,243.50 L 542.00,243.50 L 544.00,243.50 L 546.00,243.50 L 548.00,243.50 L 549.00,242.50 L 550.50,242.00 L 551.50,241.00 L 553.00,240.50 L 554.00,239.50 L 555.00,238.50 L 556.00,237.50 L 557.50,238.00 L 559.00,238.50 L 560.00,239.50 L 562.00,239.50 L 563.00,240.50 L 564.50,241.00 L 566.00,241.50 L 567.00,242.50 L 568.50,243.00 L 568.00,244.50 L 567.00,245.50 L 566.50,247.00 L 565.50,248.00 L 564.50,249.00 L 563.50,250.00 L 562.50,251.00 L 561.50,252.00 L 560.50,253.00 L 559.00,253.50 L 558.00,254.50 L 557.00,255.50 L 555.00,255.50 L 554.00,256.50 L 552.50,257.00 L 551.00,257.50 L 549.00,257.50 L 547.50,258.00 Z" fill="#1A3340"/>
<path d="M 612.00,258.50 L 610.00,258.50 L 608.00,258.50 L 606.00,258.50 L 604.00,258.50 L 602.00,258.50 L 601.00,257.50 L 599.00,257.50 L 597.00,257.50 L 596.00,256.50 L 594.00,256.50 L 593.00,255.50 L 591.50,255.00 L 590.00,254.50 L 589.00,253.50 L 588.00,252.50 L 586.50,252.00 L 585.50,251.00 L 584.50,250.00 L 583.50,249.00 L 582.50,248.00 L 582.00,246.50 L 581.00,245.50 L 580.50,244.00 L 579.50,243.00 L 578.50,242.00 L 578.00,240.50 L 577.50,239.00 L 577.00,237.50 L 576.50,236.00 L 576.50,234.00 L 575.50,233.00 L 575.50,231.00 L 575.50,229.00 L 575.50,227.00 L 575.50,225.00 L 575.50,223.00 L 575.50,221.00 L 575.50,219.00 L 575.50,217.00 L 576.50,216.00 L 576.50,214.00 L 577.00,212.50 L 577.50,211.00 L 578.00,209.50 L 578.50,208.00 L 579.50,207.00 L 580.50,206.00 L 581.00,204.50 L 582.00,203.50 L 582.50,202.00 L 583.50,201.00 L 584.50,200.00 L 585.50,199.00 L 587.00,198.50 L 588.00,197.50 L 589.00,196.50 L 590.00,195.50 L 591.50,195.00 L 593.00,194.50 L 594.00,193.50 L 596.00,193.50 L 597.00,192.50 L 599.00,192.50 L 600.50,192.00 L 602.00,191.50 L 604.00,191.50 L 606.00,191.50 L 608.00,191.50 L 610.00,191.50 L 611.50,192.00 L 613.00,192.50 L 615.00,192.50 L 616.50,193.00 L 618.00,193.50 L 619.00,194.50 L 620.50,195.00 L 622.00,195.50 L 623.00,196.50 L 624.00,197.50 L 625.50,198.00 L 626.50,199.00 L 627.50,200.00 L 628.50,201.00 L 629.50,202.00 L 630.00,203.50 L 631.00,204.50 L 631.50,206.00 L 632.50,207.00 L 633.00,208.50 L 633.50,210.00 L 634.50,211.00 L 634.50,213.00 L 635.00,214.50 L 635.50,216.00 L 635.50,218.00 L 635.50,220.00 L 635.50,222.00 L 636.50,223.00 L 636.50,225.00 L 636.50,227.00 L 635.50,228.00 L 634.50,229.00 L 633.00,229.50 L 631.00,229.50 L 629.50,229.00 L 628.00,228.50 L 627.00,229.50 L 626.00,228.50 L 624.00,228.50 L 622.00,228.50 L 620.00,228.50 L 618.00,228.50 L 616.00,228.50 L 614.00,228.50 L 612.00,228.50 L 610.00,228.50 L 608.00,228.50 L 606.00,228.50 L 604.00,228.50 L 602.00,228.50 L 600.00,228.50 L 598.00,228.50 L 596.00,228.50 L 594.00,228.50 L 592.00,228.50 L 591.50,230.00 L 592.00,231.50 L 592.50,233.00 L 593.00,234.50 L 593.50,236.00 L 594.00,237.50 L 595.00,238.50 L 596.00,239.50 L 597.00,240.50 L 598.00,241.50 L 599.50,242.00 L 601.00,242.50 L 602.00,243.50 L 604.00,243.50 L 606.00,243.50 L 608.00,243.50 L 610.00,243.50 L 612.00,243.50 L 613.50,243.00 L 615.00,242.50 L 616.00,241.50 L 617.00,240.50 L 618.50,240.00 L 619.50,239.00 L 620.50,238.00 L 621.50,237.00 L 623.00,237.50 L 624.00,238.50 L 625.50,239.00 L 627.00,239.50 L 628.00,240.50 L 629.50,241.00 L 631.00,241.50 L 632.50,242.00 L 633.50,243.00 L 633.00,244.50 L 632.50,246.00 L 631.50,247.00 L 630.50,248.00 L 629.50,249.00 L 628.50,250.00 L 627.50,251.00 L 626.50,252.00 L 625.50,253.00 L 624.50,254.00 L 623.00,254.50 L 622.00,255.50 L 620.50,256.00 L 619.00,256.50 L 617.50,257.00 L 616.00,257.50 L 614.00,257.50 L 612.50,258.00 Z" fill="#1A3340"/>
<path d="M 554.50,216.00 L 553.50,215.00 L 553.50,213.00 L 552.50,212.00 L 552.00,210.50 L 551.00,209.50 L 550.50,208.00 L 549.00,207.50 L 548.00,206.50 L 547.00,205.50 L 545.00,205.50 L 544.00,204.50 L 542.00,204.50 L 540.00,204.50 L 538.00,204.50 L 537.00,205.50 L 535.00,205.50 L 533.50,206.00 L 532.50,207.00 L 531.00,207.50 L 530.50,209.00 L 529.50,210.00 L 528.50,211.00 L 528.00,212.50 L 527.50,214.00 L 527.00,215.50 L 528.00,216.50 L 530.00,216.50 L 532.00,216.50 L 534.00,216.50 L 536.00,216.50 L 538.00,216.50 L 540.00,216.50 L 542.00,216.50 L 544.00,216.50 L 546.00,216.50 L 548.00,216.50 L 550.00,216.50 L 552.00,216.50 L 554.00,216.50 Z" fill="#1A3340"/>
<path d="M 619.50,216.00 L 619.50,214.00 L 618.50,213.00 L 618.00,211.50 L 617.50,210.00 L 616.50,209.00 L 615.50,208.00 L 614.50,207.00 L 613.00,206.50 L 612.00,205.50 L 610.00,205.50 L 609.00,204.50 L 607.00,204.50 L 605.00,204.50 L 603.00,204.50 L 602.00,205.50 L 600.00,205.50 L 599.00,206.50 L 597.50,207.00 L 596.50,208.00 L 595.50,209.00 L 595.00,210.50 L 594.00,211.50 L 593.50,213.00 L 593.00,214.50 L 592.50,216.00 L 594.00,216.50 L 596.00,216.50 L 598.00,216.50 L 600.00,216.50 L 602.00,216.50 L 604.00,216.50 L 606.00,216.50 L 608.00,216.50 L 610.00,216.50 L 612.00,216.50 L 614.00,216.50 L 616.00,216.50 L 618.00,216.50 L 619.50,216.00 Z" fill="#1A3340"/>
</svg>